<svg width="275" height="59" viewBox="0 0 275 59" fill="none" xmlns="http://www.w3.org/2000/svg">
<g clip-path="url(#clip0_56_1545)">
<path d="M45.5073 27.5891C45.5073 27.1224 45.122 26.7349 44.6578 26.7349C44.5877 26.7349 44.5264 26.7437 44.4564 26.7613C36.9158 28.32 29.0599 28.9364 21.0113 28.4961C18.5328 28.364 16.0893 28.4961 13.6896 28.681C13.5057 28.6987 13.3218 28.7163 13.1466 28.7427C11.2199 29.0069 9.38948 29.8522 7.95318 31.2436C6.68327 32.4764 5.78996 34.0703 5.40461 35.7963C4.94919 37.8745 5.27324 40.0231 6.15779 41.9516C7.01607 43.8185 8.39107 45.4388 10.0901 46.6012C11.938 47.834 13.9787 48.8027 16.1156 49.4455C17.4643 49.8506 18.6642 50.0972 20.0742 50.2733C20.0917 49.7449 20.9062 48.9084 20.9325 48.5121C20.9587 48.1158 20.6522 47.7548 20.2581 47.7284C18.0511 47.8076 16.4309 47.7548 14.364 46.9887C12.2446 46.1961 10.3178 44.8928 8.79394 43.2109C8.05827 42.4095 7.45397 41.5201 7.06862 40.4987C6.68327 39.486 6.51687 38.394 6.57817 37.3109C6.78837 33.674 9.62595 30.6007 13.2517 30.0812C15.2573 29.7906 17.333 30.3101 18.9619 31.499C19.8115 32.1242 20.5471 32.9167 21.0814 33.8237C21.6857 34.8452 22.1936 35.9284 22.5439 37.0731C23.2796 39.4419 23.3409 42.0397 23.0256 44.4878C22.8855 45.5269 22.6753 46.5572 22.3775 47.561C22.2111 48.1334 22.0097 48.7058 21.782 49.2518C21.7382 49.3575 21.7207 49.4631 21.7207 49.5776C21.7207 50.0443 22.0885 50.4142 22.5527 50.423C22.6052 50.423 22.7103 50.423 22.7629 50.423C28.3417 50.423 33.4476 48.424 37.4062 45.113C37.4062 45.113 37.415 45.113 37.4237 45.1042C37.5814 44.9457 37.6777 44.7343 37.6777 44.5054C37.6777 44.3293 37.6164 44.1795 37.5376 44.0387C36.0575 41.4761 32.8258 37.7952 32.8258 37.7952C32.8258 37.7952 36.4779 41.0534 39.1052 42.48C39.2454 42.5593 39.403 42.6209 39.5782 42.6209C39.8146 42.6209 40.0248 42.524 40.1737 42.3743C40.1737 42.3655 40.1912 42.3567 40.2 42.3479C43.528 38.4116 45.5248 33.3394 45.5248 27.8004V27.5891" fill="#0B8BEE"/>
<path d="M4.30915 37.9537C3.40708 35.9724 2.85533 33.8237 2.72396 31.6487C2.70644 31.3581 2.7152 30.9618 2.70644 30.6624C2.70644 30.2573 2.37364 29.9227 1.97077 29.9227C1.56791 29.9227 0.700869 30.6624 0.0878119 30.6624C0.709627 35.444 2.8816 39.9703 6.24466 43.4487C7.8824 45.157 9.92301 46.4691 12.2351 47.0943C14.2232 47.6315 16.3251 47.3849 18.1642 46.4691C19.04 46.0288 19.8458 45.43 20.5201 44.7079C21.2295 43.9418 21.7813 43.0084 22.2892 42.1013C22.8235 41.1415 23.2877 40.1376 23.708 39.1249C24.1547 38.0418 24.5225 36.9322 25.013 35.8667C26.8609 31.8424 29.4708 28.1615 32.9915 25.4228C34.7168 24.0843 36.591 22.9572 38.5878 22.0766C39.6037 21.6275 40.6459 21.2488 41.7056 20.923C42.2136 20.7733 42.7303 20.6324 43.247 20.5091C43.7112 20.3682 43.9652 19.8751 43.8163 19.426C42.5201 16.1766 40.4533 13.2442 37.8346 10.9194C37.8171 10.9018 37.7996 10.893 37.7821 10.8754C37.6332 10.7433 37.4405 10.664 37.2216 10.664C36.9939 10.664 36.7924 10.8049 36.6085 10.9282C32.4135 13.8342 29.3131 18.6775 29.3131 18.6775C29.3131 18.6775 30.9509 14.5387 34.4453 9.43119C34.5329 9.30791 34.5679 9.1494 34.5679 8.99089C34.5679 8.7003 34.4278 8.44492 34.2088 8.29522C34.1826 8.27761 34.1563 8.26 34.1213 8.24239C31.9668 6.99194 29.6021 6.08492 27.1412 5.60059C25.3545 5.23955 23.5154 5.09865 21.6937 5.17791H21.6499C21.1945 5.19552 20.8442 5.56537 20.8267 6.02328C20.599 11.9673 21.7638 22.191 21.7638 22.191C21.7638 22.191 19.6794 12.117 17.6213 6.52522C17.4986 6.18179 17.1921 5.92642 16.8155 5.92642C16.763 5.92642 16.7017 5.92642 16.6491 5.94403C16.6491 5.94403 16.6404 5.94403 16.6316 5.94403C16.4827 5.98806 16.3338 6.02328 16.1937 6.06731C12.7606 7.08 9.58144 8.91164 6.98909 11.3597C6.54243 11.7824 6.11329 12.2227 5.70166 12.6806C5.69291 12.6894 5.68415 12.707 5.67539 12.707C5.53526 12.8567 5.44769 13.0593 5.44769 13.2794C5.44769 13.4995 5.52651 13.7549 5.70166 13.8782C10.1857 17.2685 13.4963 21.1343 13.4963 21.1343C13.4963 21.1343 9.2574 18.017 4.20405 16.0357C4.06393 15.9828 3.9238 15.9124 3.76616 15.9124C3.47714 15.9124 3.21441 16.0621 3.05676 16.2822C3.05676 16.2822 3.05676 16.291 3.05676 16.2998C2.32109 17.5327 1.70804 18.8448 1.22635 20.1921C0.604534 21.9269 0.210424 23.7233 0.0265064 25.5373C-0.0172834 26.004 -0.0523127 26.4795 0.429375 26.7349C0.62205 26.8406 0.823482 26.8582 1.03367 26.8142C1.34896 26.7525 1.65549 26.6909 1.97077 26.6381C3.17062 26.4443 4.39673 26.3475 5.60533 26.3651C8.04004 26.3915 10.4748 26.8318 12.7606 27.6772C14.8713 28.4609 16.798 29.6937 18.2518 31.4109C21.0018 34.6603 22.4644 40.2433 19.294 43.6952C17.849 45.2891 15.7033 46.064 13.5576 45.8703C12.4541 45.7646 11.4819 45.386 10.5185 44.8664C9.64275 44.3909 8.81074 43.8449 8.05756 43.1845C6.42858 41.7491 5.18495 39.8822 4.30039 37.9185" fill="#FFCD00"/>
<path d="M61.9357 15.6218C61.9357 13.0152 62.4874 12.7334 65.8592 12.3107V10.9106H52.6172V12.3107C55.9365 12.7334 56.5408 13.0064 56.5408 15.6218V32.3443C56.5408 40.3578 61.3839 44.0827 69.1347 44.0827C75.7295 44.0827 80.993 40.3578 80.993 32.4852V15.6658C80.993 13.0593 81.5885 12.7334 84.9166 12.3107V10.9106H74.442V12.3107C78.2693 12.6806 78.9173 13.0593 78.9173 15.6658V31.6487C78.9173 38.4997 75.3178 41.3352 69.6952 41.3352C64.6681 41.3352 61.9444 37.8393 61.9444 31.9745V15.6218H61.9357Z" fill="#0B8BEE"/>
<path d="M84.8989 10.9194L84.207 21.1255H85.4507C88.1744 14.4154 89.1903 12.4604 93.0176 12.4604H96.0128V39.0633C96.0128 41.6699 94.8129 41.8107 91.6338 42.2334V43.6336H105.752V42.2334C102.616 41.8107 101.416 41.6787 101.416 39.0633V12.4604H104.368C108.195 12.4604 109.211 14.4154 111.979 21.1255H113.178L112.486 10.9194H84.8989Z" fill="#0B8BEE"/>
<path d="M122.689 42.5505C118.582 42.5505 117.189 37.0996 117.189 30.6272C117.189 24.1548 119.125 20.289 122.908 20.289C127.06 20.289 128.908 25.6958 128.908 32.2123C128.908 38.7287 126.473 42.5505 122.689 42.5505ZM122.9 44.0915C129.354 44.0915 134.338 38.8255 134.338 30.8121C134.338 23.6352 129.862 18.7479 123.127 18.7479C116.392 18.7479 111.689 24.0139 111.689 31.9745C111.689 39.2394 116.165 44.0827 122.9 44.0827V44.0915Z" fill="#0B8BEE"/>
<path d="M143.35 30.3454L153.772 43.6248H159.403V42.6473L148.009 28.4345L154.648 22.2879C155.707 21.3104 156.583 20.9406 158.335 20.5619V19.2146H148.876V20.5619C151.048 20.7909 151.924 20.8878 151.924 21.7772C151.924 22.3848 151.416 22.9396 150.68 23.5912L143.35 30.3454ZM137.675 40.0848C137.675 41.8107 136.939 42.1366 134.627 42.2775V43.6248H145.881V42.2775C143.578 42.1366 142.833 41.8107 142.833 40.0848V7.15045H142.045L134.758 9.4312V10.1269L137.666 11.7119V40.0848H137.675Z" fill="#0B8BEE"/>
<path d="M172.075 38.3148L166.129 23.4063C165.945 22.8515 165.848 22.4728 165.848 22.103C165.848 21.0286 166.68 20.8437 169.027 20.5619V19.2146H157.773V20.5619C159.437 20.9846 159.709 21.3104 160.129 22.2879L169.676 44.3733L168.843 46.61C167.784 49.4983 166.216 50.194 163.72 50.194C162.433 50.194 161.741 50.0091 160.856 49.7713V51.5854C161.268 52.9855 162.792 53.8221 164.272 53.8221C167.179 53.8221 168.607 51.8231 169.991 48.2743L179.957 22.2791C180.325 21.3457 180.649 20.9758 182.313 20.5531V19.2058H174.659V20.5531C177.015 20.8349 177.838 21.0198 177.838 22.0942C177.838 22.464 177.742 22.8427 177.558 23.3975L172.066 38.306L172.075 38.3148Z" fill="#0B8BEE"/>
<path d="M192.307 42.5505C188.2 42.5505 186.36 37.0996 186.36 30.6272C186.36 24.1548 188.296 20.289 192.079 20.289C196.231 20.289 198.079 25.6958 198.079 32.2123C198.079 38.7287 196.099 42.5505 192.316 42.5505H192.307ZM192.079 44.0915C198.534 44.0915 203.517 38.8255 203.517 30.8121C203.517 23.6352 199.042 18.7479 192.307 18.7479C185.572 18.7479 180.869 24.0139 180.869 31.9745C180.869 39.2394 185.344 44.0827 192.079 44.0827V44.0915Z" fill="#0B8BEE"/>
</g>
<defs>
<clipPath id="clip0_56_1545">
<rect width="275" height="59" fill="white"/>
</clipPath>
</defs>
</svg>
