<svg width="300.000000pt" height="301.000000pt" viewBox="0 0 300.000000 301.000000" xmlns="http://www.w3.org/2000/svg">
  <g transform="translate(0.000000,301.000000) scale(0.100000,-0.100000)" fill="#fefefe" stroke="none">
    <path d="M0 1505 l0 -1505 1500 0 1500 0 0 1505 0 1505 -1500 0 -1500 0 0
-1505z m2145 504 c-14 -22 -112 -180 -217 -352 -106 -172 -221 -359 -256 -417
-36 -58 -93 -152 -128 -209 -63 -104 -63 -104 -81 -72 -19 34 -627 1018 -657
1064 -18 27 -18 27 673 27 691 0 691 0 666 -41z" />
    <path d="M972 1933 c2 -10 48 -91 103 -180 100 -162 100 -162 233 -163 132 0
132 0 132 180 l0 180 -236 0 c-219 0 -235 -1 -232 -17z" />
    <path d="M1519 1623 c-1 -181 -3 -352 -5 -380 -3 -40 0 -53 10 -53 15 0 20 8
166 245 51 83 139 225 196 317 57 92 104 174 104 183 0 13 -31 15 -235 15
l-235 0 -1 -327z" />
    <path d="M1233 1511 c9 -34 181 -301 194 -301 10 0 13 38 13 160 0 160 0 160
-106 160 -100 0 -106 -1 -101 -19z" />
  </g>
  <g transform="translate(0.000000,301.000000) scale(0.100000,-0.100000)" fill="#8bfdfb" stroke="none">
    <path d="M1324 2039 c-4 -7 -67 -10 -193 -9 -251 1 -243 1 -271 3 -41 3 -39
-38 3 -78 19 -18 37 -44 41 -59 4 -15 15 -35 26 -46 11 -11 20 -23 20 -28 0
-4 11 -16 25 -26 16 -12 26 -32 31 -62 4 -28 17 -56 38 -78 51 -58 56 -64 56
-81 0 -9 7 -18 15 -21 8 -4 15 -12 15 -20 0 -8 4 -14 9 -14 5 0 14 -20 20 -44
6 -25 17 -51 23 -58 7 -8 20 -27 29 -43 10 -17 26 -34 38 -40 12 -5 24 -19 27
-30 6 -23 36 -87 44 -95 3 -3 14 -24 25 -47 11 -24 25 -43 31 -43 6 0 14 -13
18 -30 3 -18 12 -30 21 -30 8 0 15 -9 15 -20 0 -11 6 -20 14 -20 8 0 17 -14
21 -31 10 -42 34 -34 52 19 8 24 23 53 34 65 11 12 26 29 34 38 8 9 15 25 15
37 0 12 5 22 11 22 17 0 34 22 53 73 10 26 24 47 32 47 16 0 19 26 4 35 -17
11 -11 25 15 37 14 6 25 16 25 22 0 6 12 22 25 35 27 25 32 57 11 84 -15 20
-36 23 -36 4 0 -7 -9 -20 -20 -30 -11 -9 -20 -28 -20 -42 0 -14 -6 -25 -13
-25 -18 0 -67 -98 -67 -133 0 -20 -7 -30 -25 -37 -14 -5 -25 -14 -25 -20 0 -6
-5 -16 -10 -23 -6 -7 -17 -21 -25 -32 -13 -19 -14 -19 -24 8 -11 28 -41 38
-41 12 0 -8 -9 -15 -19 -15 -11 0 -23 -9 -26 -20 -9 -28 -24 -25 -31 8 -3 15
-8 34 -11 42 -3 8 -7 30 -8 49 -1 19 -8 39 -16 45 -8 6 -21 25 -29 41 -16 32
-19 36 -50 74 -11 13 -20 29 -20 34 0 14 -32 36 -52 37 -11 0 -18 8 -18 19 0
22 9 26 89 41 38 7 58 7 67 -1 17 -14 84 -1 84 17 0 8 -9 14 -20 14 -11 0 -20
4 -20 9 0 6 -49 9 -115 8 -63 -1 -115 1 -115 6 0 4 -6 7 -14 7 -8 0 -16 16
-20 40 -3 23 -13 43 -20 46 -8 3 -17 21 -20 40 -4 19 -11 34 -17 34 -5 0 -14
10 -20 23 -21 46 -45 85 -61 101 -10 10 -18 24 -18 32 0 8 -7 14 -15 14 -19 0
-19 7 1 27 13 14 50 18 205 22 104 3 189 3 189 -1 0 -5 13 -8 29 -8 49 0 91
-12 91 -26 0 -8 -7 -14 -15 -14 -12 0 -15 -16 -15 -85 0 -69 3 -85 15 -85 18
0 22 -124 5 -135 -5 -3 -10 -19 -10 -36 0 -34 12 -37 41 -8 21 21 21 27 14
195 -6 149 -5 174 8 174 8 0 20 7 27 15 7 8 23 15 36 15 13 0 24 6 24 13 0 8
2 9 8 1 10 -16 72 -29 72 -15 0 12 258 14 300 2 33 -10 31 -48 -3 -85 -14 -15
-28 -39 -32 -54 -12 -52 -39 -102 -57 -108 -10 -3 -21 -16 -24 -30 -3 -13 -10
-24 -15 -24 -5 0 -9 -5 -9 -11 0 -6 -7 -17 -15 -26 -9 -8 -19 -28 -22 -44 -3
-16 -9 -29 -14 -29 -5 0 -9 -15 -9 -34 0 -32 13 -46 41 -46 14 0 11 28 -3 33
-7 3 -3 6 10 6 13 1 22 7 22 16 0 19 46 94 72 116 10 9 18 22 18 28 0 7 9 21
20 33 10 11 22 33 25 47 3 15 15 33 25 41 11 8 20 24 20 36 0 12 7 24 15 28 8
3 15 18 15 33 1 19 14 41 40 68 74 74 73 74 -200 73 -209 -1 -242 -3 -250 -17
-8 -14 -9 -14 -10 2 0 14 -9 17 -51 17 -45 0 -51 -2 -47 -18 4 -16 -1 -18 -36
-16 -29 1 -42 7 -44 18 -4 19 -126 24 -138 5z" />
    <path d="M1458 1526 c-6 -14 -7 -33 -3 -43 4 -10 7 -56 7 -103 -2 -108 5 -150
23 -150 17 0 16 -7 19 183 2 127 1 137 -16 137 -10 0 -23 -11 -30 -24z" />
  </g>
  <g transform="translate(0.000000,301.000000) scale(0.100000,-0.100000)" fill="#92fcf8" stroke="none">
    <path d="M821 2041 c-14 -9 -7 -51 10 -51 5 0 9 -4 9 -9 0 -19 55 -100 69
-101 8 0 11 6 7 16 -3 9 -6 25 -6 35 0 11 -4 18 -8 15 -11 -7 -58 45 -57 64 0
9 8 14 18 12 10 -2 17 3 17 13 0 16 -36 20 -59 6z" />
    <path d="M890 2036 c0 -16 45 -30 63 -19 7 4 93 6 193 4 154 -2 182 0 193 13
12 15 -8 16 -218 16 -191 0 -231 -2 -231 -14z" />
    <path d="M1455 2035 c-22 -8 -41 -15 -42 -15 -1 0 0 -7 3 -15 4 -8 16 -15 28
-15 16 0 18 2 7 9 -9 6 -4 8 16 7 16 -2 36 -6 43 -11 9 -6 11 -4 5 6 -7 11 -6
12 6 2 19 -16 38 -3 36 25 -2 27 -40 29 -102 7z" />
    <path d="M1627 2035 c-4 -8 -2 -17 3 -20 23 -14 6 -25 -39 -25 -29 0 -53 -6
-60 -14 -10 -11 25 -14 216 -15 126 -1 238 -4 251 -8 15 -3 22 -1 22 8 -1 32
-16 34 -188 29 -96 -3 -176 -1 -179 3 -3 4 3 19 11 32 16 24 16 25 -8 25 -13
0 -26 -7 -29 -15z" />
    <path d="M1735 2040 c3 -5 24 -10 45 -10 21 0 42 5 45 10 4 6 -13 10 -45 10
-32 0 -49 -4 -45 -10z" />
    <path d="M1993 2038 c0 -7 11 -14 24 -14 26 -2 31 11 7 20 -23 9 -31 7 -31 -6z" />
    <path d="M2095 2039 c4 -6 13 -8 21 -5 20 8 17 -8 -4 -27 -10 -10 -22 -14 -27
-10 -4 5 -5 3 -1 -4 4 -7 -2 -21 -13 -32 -11 -11 -21 -32 -23 -48 -2 -18 -9
-28 -18 -27 -11 1 -15 -7 -14 -27 1 -17 -3 -27 -10 -26 -6 1 -10 -4 -9 -10 2
-7 -1 -13 -6 -13 -5 0 -11 -9 -14 -19 -3 -13 -13 -19 -26 -18 -14 1 -17 5 -11
11 6 6 10 18 10 29 0 10 5 15 10 12 6 -3 10 1 10 9 0 9 -7 16 -15 16 -8 0 -15
-6 -15 -14 0 -8 -7 -16 -15 -20 -8 -3 -15 -12 -15 -21 0 -8 -4 -15 -9 -15 -11
0 -24 -50 -16 -59 4 -3 13 2 20 12 7 10 25 20 38 21 22 3 24 1 14 -15 -6 -10
-15 -15 -19 -13 -4 3 -8 -4 -8 -16 0 -11 -13 -34 -29 -51 -30 -31 -51 -32 -51
-2 0 9 3 13 7 10 9 -10 35 31 28 43 -11 17 -23 11 -44 -24 -24 -38 -27 -58 -8
-50 8 3 20 -2 27 -11 18 -22 50 -19 50 5 0 11 5 20 10 20 6 0 10 7 10 15 0 8
4 15 9 15 5 0 13 10 17 23 4 12 10 24 13 27 11 8 71 100 71 109 0 5 7 14 15
21 8 7 15 19 15 27 0 8 11 28 25 45 14 16 25 36 25 44 0 8 4 14 9 14 17 0 24
42 10 51 -20 12 -51 11 -44 -2z" />
    <path d="M968 1983 c-10 -3 -18 -9 -18 -14 0 -5 -7 -9 -15 -9 -18 0 -18 -5 -4
-31 5 -11 15 -16 21 -13 7 5 9 1 5 -9 -3 -10 -2 -17 3 -17 6 0 10 -6 10 -14 0
-8 5 -18 12 -22 7 -5 8 -3 3 7 -8 12 -6 12 8 0 25 -20 23 10 -2 33 -29 26 -34
57 -10 63 33 9 21 33 -13 26z" />
    <path d="M1018 1984 c-20 -20 7 -24 199 -26 204 -3 208 -3 219 -25 6 -13 14
-20 19 -15 4 4 4 -36 1 -88 -4 -52 -8 -123 -10 -158 -1 -34 -7 -67 -12 -72 -5
-5 -36 -10 -69 -12 -60 -3 -60 -3 -28 -19 17 -9 44 -15 60 -13 28 4 28 4 0 -5
-20 -7 -36 -5 -55 5 -31 16 -56 18 -47 4 4 -6 -6 -10 -24 -10 -16 0 -33 -4
-36 -10 -4 -6 34 -10 106 -10 112 0 112 0 106 -37 -3 -21 -2 -99 2 -173 8
-143 7 -158 -12 -138 -19 20 -67 97 -67 107 0 19 -29 34 -44 22 -12 -10 -19
-8 -34 7 -10 10 -26 22 -36 25 -10 4 -14 12 -10 18 4 7 3 9 -2 6 -6 -3 -16 3
-23 15 -10 16 -10 19 1 13 7 -4 5 0 -4 10 -10 11 -21 16 -25 12 -9 -10 27 -78
44 -84 7 -3 13 -13 13 -24 0 -10 11 -29 24 -42 13 -13 27 -35 31 -48 4 -13 16
-35 26 -48 11 -13 19 -28 19 -33 0 -10 71 -119 87 -133 6 -5 13 -19 15 -30 2
-13 11 -20 26 -20 18 0 30 13 55 60 18 33 38 64 45 68 17 11 15 44 -3 44 -8 0
-15 -5 -15 -10 0 -5 -14 -31 -32 -58 -24 -38 -34 -46 -45 -38 -7 6 -11 15 -8
19 3 4 -2 11 -11 14 -8 3 -12 2 -9 -3 3 -5 1 -12 -5 -16 -5 -3 -10 1 -10 10 0
8 -7 18 -16 22 -8 3 -13 12 -10 20 3 8 1 11 -4 8 -21 -13 -9 13 14 31 14 10
23 21 20 26 -3 4 2 5 10 2 11 -4 19 2 24 17 5 13 11 18 15 12 9 -15 -3 -44
-14 -37 -5 3 -9 -2 -9 -11 0 -10 -4 -13 -12 -8 -7 4 -2 -6 12 -23 17 -21 26
-26 28 -17 2 8 -2 21 -10 30 -9 12 -9 15 0 9 7 -4 12 -2 12 7 0 10 7 13 20 10
12 -3 22 1 26 11 3 9 11 13 17 9 6 -4 8 0 4 10 -3 10 -2 17 3 17 6 0 10 10 10
21 0 22 18 23 62 4 13 -5 21 0 30 22 7 15 17 31 23 35 12 9 -4 39 -24 46 -8 3
-10 -4 -5 -22 4 -18 2 -28 -9 -32 -9 -3 -13 -12 -10 -20 3 -8 -1 -14 -9 -14
-20 0 -11 73 13 99 11 11 18 24 18 28 -4 16 14 43 27 43 8 0 14 7 14 16 0 9
-7 14 -17 12 -16 -3 -36 -34 -89 -135 -9 -18 -20 -33 -25 -33 -5 0 -9 -7 -9
-15 0 -8 -4 -15 -9 -15 -5 0 -14 -13 -21 -30 -20 -47 -30 -35 -30 33 0 51 -3
64 -15 64 -12 0 -15 -8 -10 -31 4 -26 4 -28 -5 -9 -5 13 -8 68 -6 123 3 55 0
102 -5 106 -5 3 -9 11 -9 17 0 7 4 6 10 -3 8 -12 10 -10 8 9 -2 13 3 26 10 28
10 4 12 -6 7 -44 -9 -61 -6 -156 4 -166 4 -4 11 40 14 99 10 149 9 204 -3 204
-5 0 -10 -6 -10 -14 0 -14 -29 -30 -38 -21 -3 3 0 11 6 17 8 8 12 61 12 167 0
85 2 152 4 150 2 -2 6 -58 10 -124 3 -66 5 -121 6 -122 0 -2 5 -3 10 -3 6 0
10 50 10 129 0 129 0 129 -30 143 -16 7 -30 16 -30 19 0 8 -5 9 -230 15 -113
3 -208 3 -212 -2z m314 -696 c21 4 31 -14 20 -35 -7 -12 -5 -21 9 -32 20 -16
39 -91 23 -91 -11 1 -44 65 -44 86 0 9 -5 12 -12 8 -7 -4 -8 -3 -4 4 4 7 -2
22 -13 34 -23 24 -28 44 -8 31 6 -4 19 -6 29 -5z m168 -298 c0 -19 -18 -19
-23 -1 -3 14 -1 18 9 14 8 -3 14 -9 14 -13z" />
    <path d="M1980 1905 c0 -8 -4 -15 -10 -15 -5 0 -10 -6 -10 -13 0 -8 7 -14 15
-14 9 0 14 6 11 14 -3 8 1 16 9 19 19 8 19 24 0 24 -8 0 -15 -7 -15 -15z" />
    <path d="M910 1856 c0 -9 9 -25 20 -36 11 -11 20 -27 20 -35 0 -8 5 -15 11
-15 17 0 36 -24 43 -56 4 -16 36 -74 71 -129 36 -55 72 -115 81 -132 17 -34
28 -41 39 -23 3 6 1 10 -6 10 -7 0 -10 3 -7 6 4 3 15 1 27 -5 13 -8 22 -8 26
-1 4 6 11 8 16 5 10 -7 12 6 3 29 -10 27 -37 20 -30 -8 5 -22 4 -22 -29 8 -19
18 -35 38 -35 44 0 7 -4 12 -10 12 -5 0 -10 6 -10 14 0 8 -7 16 -15 20 -8 3
-15 17 -15 31 0 15 -4 24 -9 21 -16 -10 -30 38 -14 52 11 11 15 8 24 -17 6
-17 17 -31 25 -31 19 0 18 26 -3 48 -10 10 -27 35 -38 57 -11 22 -23 42 -26
45 -3 3 -14 20 -24 38 -20 34 -30 39 -40 21 -4 -6 2 -17 14 -25 21 -15 20 -34
-2 -34 -7 0 -6 4 3 10 13 9 7 14 -12 11 -5 0 -8 4 -8 10 0 5 -5 7 -10 4 -6 -4
-9 -1 -8 7 2 7 -2 12 -9 11 -7 -2 -10 3 -7 11 3 7 -3 16 -13 20 -10 3 -24 9
-30 12 -8 3 -13 -1 -13 -10z m152 -110 c6 4 8 -2 3 -16 -4 -13 -3 -20 2 -17
14 9 13 -31 -1 -43 -23 -19 -52 36 -35 67 7 14 15 20 17 14 2 -6 8 -8 14 -5z" />
    <path d="M1789 1598 c-7 -13 -25 -39 -41 -58 -15 -19 -28 -40 -28 -47 0 -7 -4
-13 -10 -13 -5 0 -10 -9 -10 -20 0 -17 3 -18 28 -9 15 6 29 11 32 12 3 1 3 9
2 17 -3 12 -1 13 9 2 11 -10 11 -16 1 -33 -8 -12 -11 -24 -7 -27 10 -11 40 14
43 37 2 11 7 21 12 21 4 0 20 25 35 55 23 45 26 57 15 70 -16 19 -37 19 -37 0
0 -10 6 -14 16 -10 11 5 11 1 -3 -14 -11 -12 -15 -25 -10 -33 6 -9 3 -9 -10 1
-12 11 -16 23 -12 43 7 34 -9 37 -25 6z m27 -49 c3 -6 0 -18 -9 -26 -13 -13
-14 -12 -14 11 0 27 11 34 23 15z" />
    <path d="M1140 1604 c1 -24 21 -36 63 -38 51 -1 59 15 12 26 -16 3 -40 9 -52
13 -13 4 -23 3 -23 -1z" />
    <path d="M1185 1527 c-12 -10 -15 -16 -6 -21 6 -4 18 -1 26 8 27 27 13 36 -20
13z" />
    <path d="M1260 1410 c0 -5 5 -10 11 -10 5 0 7 -4 4 -10 -3 -5 -1 -10 5 -10 6
0 8 -4 5 -10 -3 -5 1 -10 9 -10 9 0 16 -7 16 -15 0 -8 5 -15 10 -15 6 0 10 7
10 15 0 8 -3 15 -8 15 -4 0 -13 14 -20 30 -13 28 -42 42 -42 20z" />
    <path d="M1740 1400 c0 -12 -55 -41 -63 -34 -9 10 5 -40 16 -53 13 -18 27 -16
27 2 0 8 4 15 8 15 9 0 42 54 42 69 0 6 -7 11 -15 11 -8 0 -15 -4 -15 -10z" />
    <path d="M1616 1189 c4 -8 -1 -9 -16 -4 -19 6 -21 4 -15 -17 10 -32 10 -32 34
-11 25 21 27 43 5 43 -8 0 -12 -5 -8 -11z" />
    <path d="M1526 1123 c-11 -11 -7 -20 9 -20 8 0 15 4 15 8 0 11 -16 20 -24 12z" />
  </g>
  <g transform="translate(0.000000,301.000000) scale(0.100000,-0.100000)" fill="#8afcf4" stroke="none">
    <path d="M861 2043 c3 -19 -2 -25 -14 -14 -10 8 -14 7 -14 -3 0 -7 9 -12 21
-11 12 1 26 3 32 4 25 3 24 31 -1 31 -14 0 -24 -3 -24 -7z" />
    <path d="M1454 2035 c13 -10 24 -11 37 -4 28 14 23 19 -18 19 -35 -1 -37 -2
-19 -15z" />
    <path d="M1623 2043 c4 -3 -1 -12 -11 -20 -15 -13 -15 -13 5 -3 29 14 38 30
17 30 -10 0 -14 -3 -11 -7z" />
    <path d="M1990 1999 c0 -6 -7 -9 -15 -5 -8 3 -15 1 -15 -4 0 -6 2 -10 4 -10 2
0 12 -3 22 -7 12 -4 15 -3 10 5 -4 7 -2 12 3 12 6 0 11 5 11 10 0 6 -4 10 -10
10 -5 0 -10 -5 -10 -11z" />
    <path d="M1013 1985 c0 -6 63 -9 174 -7 95 2 173 6 173 10 0 4 -78 7 -173 7
-109 0 -174 -4 -174 -10z" />
    <path d="M1585 1990 c-4 -6 -15 -8 -26 -5 -11 4 -19 2 -19 -4 0 -13 14 -14 59
-5 17 4 28 10 25 15 -7 12 -31 11 -39 -1z" />
    <path d="M2014 1975 c-13 -20 -14 -28 -4 -40 11 -13 10 -14 -4 -9 -17 6 -23
-11 -7 -20 14 -9 34 22 27 41 -4 10 -4 14 0 10 4 -4 13 -2 20 4 10 8 18 7 30
-5 18 -19 33 -13 31 13 -1 17 -14 19 -57 10 -8 -2 -14 2 -12 9 3 19 -6 14 -24
-13z" />
    <path d="M1450 1961 c0 -14 5 -18 20 -14 19 5 20 0 22 -78 2 -84 2 -84 5 -14
2 38 9 75 14 82 13 14 2 36 -14 30 -7 -2 -20 0 -29 5 -14 7 -18 5 -18 -11z" />
    <path d="M905 1960 c-11 -4 -26 -5 -32 -3 -7 3 -13 0 -13 -5 0 -16 18 -24 26
-11 5 8 8 8 13 0 5 -8 13 -7 26 2 22 16 8 28 -20 17z" />
    <path d="M913 1898 c-12 -15 1 -58 17 -58 6 0 8 -6 4 -12 -4 -7 2 -5 14 6 19
16 22 36 6 36 -3 0 -3 -4 1 -9 3 -5 1 -12 -5 -16 -10 -6 -11 -5 -15 33 -3 30
-10 35 -22 20z" />
    <path d="M1977 1874 c3 -7 9 -14 13 -14 5 0 7 -9 5 -19 -2 -11 2 -22 9 -24 13
-5 14 16 2 45 -9 21 -37 33 -29 12z" />
    <path d="M2031 1876 c-7 -8 -8 -17 -3 -20 6 -3 15 1 21 8 7 8 8 17 3 20 -6 3
-15 -1 -21 -8z" />
    <path d="M1927 1818 c-9 -28 15 -58 42 -54 14 2 29 5 34 5 4 1 7 8 7 17 0 8
-4 12 -10 9 -5 -3 -10 0 -11 7 0 7 -4 2 -10 -10 -12 -31 -35 -23 -31 11 3 27
-13 38 -21 15z" />
    <path d="M973 1768 c7 -17 18 -33 24 -35 13 -5 25 35 12 43 -5 3 -9 -1 -10 -8
0 -7 -5 -3 -11 10 -17 34 -30 26 -15 -10z" />
    <path d="M1024 1769 c0 -13 6 -17 20 -15 20 3 36 25 19 27 -4 0 -15 2 -23 4
-10 1 -16 -5 -16 -16z" />
    <path d="M1903 1776 c4 -10 3 -15 -3 -11 -6 3 -10 2 -10 -4 0 -5 -3 -17 -7
-27 -5 -14 -3 -16 11 -11 12 5 24 0 37 -15 10 -13 18 -18 19 -11 0 6 -4 14
-10 18 -5 3 -6 13 -3 22 4 10 2 14 -4 10 -5 -3 -9 3 -9 15 1 12 -5 23 -13 26
-10 3 -12 0 -8 -12z" />
    <path d="M1440 1745 c0 -22 4 -34 10 -30 6 3 10 17 10 30 0 13 -4 27 -10 30
-6 4 -10 -8 -10 -30z" />
    <path d="M1502 1768 c-7 -7 -12 -19 -11 -27 0 -11 2 -12 6 -3 2 6 9 10 14 6 5
-3 9 4 9 15 0 24 -2 25 -18 9z" />
    <path d="M1440 1660 c0 -25 4 -39 10 -35 6 3 10 19 10 35 0 16 -4 32 -10 35
-6 4 -10 -10 -10 -35z" />
    <path d="M1507 1693 c-11 -10 -8 -71 3 -78 6 -4 10 12 10 39 0 47 -2 51 -13
39z" />
    <path d="M1057 1672 c1 -8 3 -16 3 -18 0 -3 5 -2 10 1 6 3 10 11 10 16 0 6 -4
8 -9 5 -5 -4 -11 -3 -14 1 -2 5 -2 2 0 -5z" />
    <path d="M1107 1646 c-4 -10 -3 -15 3 -11 9 6 14 -14 11 -42 -3 -23 16 -22 29
2 13 25 -1 61 -20 50 -5 -3 -10 0 -12 7 -3 7 -7 5 -11 -6z" />
    <path d="M1065 1630 c-4 -6 -3 -16 3 -22 6 -6 12 -6 17 2 4 6 3 16 -3 22 -6 6
-12 6 -17 -2z" />
    <path d="M1868 1621 c-14 -16 -14 -22 -4 -30 18 -15 41 12 29 33 -8 14 -11 13
-25 -3z" />
    <path d="M1395 1570 c-19 -8 -19 -9 2 -9 12 -1 25 4 28 9 7 12 -2 12 -30 0z" />
    <path d="M1452 1561 c4 -30 23 -38 32 -14 4 9 4 14 0 10 -4 -4 -13 1 -21 11
-12 16 -13 15 -11 -7z" />
    <path d="M1114 1550 c0 -11 6 -21 11 -21 6 0 16 -5 23 -11 21 -18 13 -1 -12
26 -21 24 -23 24 -22 6z" />
    <path d="M1765 1550 c-3 -5 -5 -10 -3 -11 33 -8 38 -7 27 7 -14 17 -16 17 -24
4z" />
    <path d="M1810 1527 c0 -8 6 -14 14 -14 8 0 12 6 9 14 -3 7 -9 13 -14 13 -5 0
-9 -6 -9 -13z" />
    <path d="M1174 1492 c-2 -17 2 -22 13 -18 9 4 21 2 28 -4 17 -14 29 18 14 36
-18 22 -54 14 -55 -14z" />
    <path d="M1766 1511 c-5 -7 -14 -10 -22 -7 -8 3 -11 0 -7 -10 4 -10 0 -12 -11
-8 -9 3 -16 1 -16 -5 0 -6 5 -11 11 -11 5 0 7 -4 4 -10 -3 -5 -1 -10 4 -10 6
0 11 6 11 13 0 15 37 40 44 29 6 -10 -17 -57 -39 -78 -8 -8 -15 -20 -15 -25 0
-5 -4 -9 -10 -9 -5 0 -10 6 -10 14 0 8 -7 17 -16 20 -13 5 -14 4 -6 -7 7 -8 9
-16 6 -20 -9 -8 34 -19 48 -12 7 4 5 0 -5 -8 -10 -8 -14 -18 -9 -21 12 -7 67
94 64 116 -2 13 1 16 14 11 11 -4 15 -2 13 6 -3 7 -8 11 -11 9 -4 -2 -13 6
-21 16 -10 14 -16 16 -21 7z" />
    <path d="M1247 1443 c-11 -10 -8 -35 3 -28 6 3 10 1 10 -6 0 -9 3 -10 10 -3 6
6 8 18 4 27 -6 18 -16 21 -27 10z" />
    <path d="M1193 1422 c-1 -10 5 -19 12 -19 10 0 11 5 4 19 -5 10 -11 18 -12 18
-2 0 -3 -8 -4 -18z" />
    <path d="M1440 1403 c0 -39 9 -65 21 -58 10 7 1 65 -12 80 -5 5 -9 -4 -9 -22z" />
    <path d="M1290 1370 c-8 -5 -11 -12 -7 -16 4 -4 13 -2 19 4 15 15 7 24 -12 12z" />
    <path d="M1306 1335 c-13 -10 -23 -12 -30 -5 -13 13 -36 13 -36 -1 0 -6 7 -8
16 -5 13 5 15 2 11 -15 -5 -20 30 -84 37 -69 2 3 10 -1 19 -8 12 -10 17 -10
23 -1 4 8 3 9 -4 5 -7 -4 -12 -3 -12 3 0 5 -8 12 -18 15 -11 4 -19 17 -20 36
-2 27 5 35 31 31 4 0 7 6 7 14 0 18 0 18 -24 0z" />
    <path d="M1685 1330 c-3 -5 -3 -10 1 -10 3 0 -1 -11 -10 -25 -9 -14 -14 -31
-9 -38 4 -8 1 -7 -10 2 -9 7 -17 9 -17 3 0 -16 28 -22 40 -7 6 7 10 17 9 21
-4 23 2 35 14 28 9 -6 9 -5 0 8 -7 8 -10 18 -6 21 3 4 4 7 0 7 -3 0 -9 -4 -12
-10z" />
    <path d="M1469 1243 c-3 -18 -2 -30 3 -27 4 3 8 -3 8 -12 0 -10 2 -15 5 -12 3
3 2 23 -3 44 -8 39 -8 39 -13 7z" />
    <path d="M1373 1242 c-8 -5 -8 -20 2 -57 7 -29 9 -54 4 -59 -15 -16 -10 -24
10 -19 11 3 22 12 25 20 3 8 1 11 -4 8 -6 -3 -11 6 -12 22 -5 92 -6 97 -25 85z" />
    <path d="M1563 1230 c3 -11 2 -18 -3 -15 -4 3 -11 -2 -14 -11 -8 -21 -8 -24 5
-24 5 0 7 4 4 10 -3 5 0 8 7 5 7 -3 18 6 24 19 9 20 9 26 -3 30 -23 9 -26 7
-20 -14z" />
    <path d="M1560 1168 c0 -4 -8 -4 -17 -1 -16 6 -17 5 -3 -12 14 -17 14 -18 -7
-6 -19 10 -23 9 -23 -4 0 -9 5 -13 11 -9 7 4 9 0 5 -14 -4 -11 -3 -23 2 -26 6
-3 9 2 8 11 0 9 5 18 13 21 8 2 11 0 8 -6 -4 -5 0 -15 8 -22 12 -10 13 -7 5
22 -12 40 -12 40 -2 35 4 -3 13 1 19 8 10 11 9 13 -7 12 -11 -1 -20 -5 -20 -9z" />
    <path d="M1475 1110 c-25 -27 -10 -39 16 -13 12 11 17 23 11 27 -5 3 -17 -3
-27 -14z" />
    <path d="M1515 1067 c6 -22 4 -26 -9 -21 -9 3 -16 1 -16 -6 0 -6 5 -8 10 -5 6
3 10 2 10 -4 0 -5 -6 -12 -12 -15 -10 -5 -10 -7 -1 -12 7 -3 9 -12 6 -20 -3
-8 0 -14 7 -14 6 0 11 10 10 23 -3 36 -1 49 9 42 6 -3 15 3 20 14 14 25 14 44
1 36 -6 -4 -7 -12 -3 -18 3 -7 -4 -3 -16 8 -22 19 -22 19 -16 -8z" />
    <path d="M1414 1059 c-3 -6 -1 -16 5 -22 13 -13 34 9 25 25 -7 11 -22 10 -30
-3z" />
  </g>
  <g transform="translate(0.000000,301.000000) scale(0.100000,-0.100000)" fill="#84fefa" stroke="none">
    <path d="M853 2018 c-15 -26 -12 -38 8 -28 10 6 16 17 13 25 -7 18 -11 19 -21
3z" />
    <path d="M2058 2013 c-11 -14 -11 -16 4 -10 13 4 15 2 11 -11 -6 -14 -4 -15 9
-5 8 7 18 10 22 6 4 -4 4 0 1 9 -9 24 -32 29 -47 11z" />
    <path d="M1595 2010 c-7 -12 2 -30 16 -30 12 0 12 27 0 35 -5 3 -12 1 -16 -5z" />
    <path d="M960 1999 c0 -5 5 -7 10 -4 6 3 10 2 10 -3 0 -5 11 -7 25 -4 14 2 22
8 19 13 -7 13 -64 11 -64 -2z" />
    <path d="M1491 1985 c-34 -24 -34 -24 -10 -34 29 -11 42 -1 44 34 0 14 1 25 0
25 0 -1 -15 -12 -34 -25z" />
    <path d="M1670 1990 c0 -6 57 -10 150 -10 93 0 150 4 150 10 0 6 -57 10 -150
10 -93 0 -150 -4 -150 -10z" />
    <path d="M890 1960 c0 -5 9 -10 20 -10 11 0 20 5 20 10 0 6 -9 10 -20 10 -11
0 -20 -4 -20 -10z" />
    <path d="M938 1928 c-21 -18 -29 -45 -12 -45 7 0 10 5 7 10 -4 6 0 8 8 5 10
-4 14 2 14 18 0 13 0 24 -1 24 0 0 -7 -6 -16 -12z" />
    <path d="M962 1860 c-7 -12 -8 -21 -2 -25 6 -3 10 -1 10 6 0 8 4 8 15 -1 9 -7
14 -19 11 -27 -9 -21 2 -15 15 10 6 12 8 19 4 14 -5 -4 -16 4 -25 17 -15 24
-16 24 -28 6z" />
    <path d="M1986 1871 c-4 -6 -12 -8 -18 -5 -6 4 -8 2 -4 -4 3 -5 2 -12 -3 -14
-4 -1 -6 -10 -2 -18 5 -13 9 -12 28 5 14 13 19 26 14 34 -6 9 -10 10 -15 2z" />
    <path d="M1001 1770 c-6 -18 -6 -28 -1 -25 6 4 10 12 10 20 0 7 5 15 12 17 9
3 9 6 1 11 -7 4 -15 -5 -22 -23z" />
    <path d="M1916 1762 c-8 -13 5 -50 19 -56 9 -3 11 2 8 15 -3 10 -10 19 -15 19
-6 0 -8 7 -4 15 6 16 1 21 -8 7z" />
    <path d="M1030 1713 c0 -21 26 -34 39 -19 9 11 9 16 0 22 -8 4 -9 3 -5 -4 9
-16 -7 -15 -22 0 -8 8 -12 8 -12 1z" />
    <path d="M1880 1701 c0 -6 -6 -11 -12 -11 -8 0 -13 -13 -13 -30 0 -27 1 -28
13 -13 6 9 12 22 12 29 0 7 5 14 12 16 9 3 9 6 0 12 -7 4 -12 2 -12 -3z" />
    <path d="M1120 1611 c0 -11 5 -23 10 -26 6 -3 10 3 10 14 0 11 -4 23 -10 26
-5 3 -10 -3 -10 -14z" />
    <path d="M1439 1595 c-6 -30 0 -70 9 -69 33 3 34 4 22 19 -7 8 -10 21 -7 29 3
8 -1 17 -9 20 -8 3 -14 3 -15 1z" />
    <path d="M1358 1558 c9 -9 15 -9 24 0 9 9 7 12 -12 12 -19 0 -21 -3 -12 -12z" />
    <path d="M1809 1552 c-16 -19 -12 -46 6 -49 6 -1 11 6 11 15 1 9 4 25 9 35 9
22 -6 22 -26 -1z" />
    <path d="M1157 1539 c-5 -17 -3 -18 11 -7 9 7 18 13 20 14 2 1 -4 4 -12 7 -8
3 -16 -2 -19 -14z" />
    <path d="M1180 1485 c0 -8 3 -15 8 -16 4 0 15 -2 25 -4 21 -4 21 -1 1 19 -20
20 -34 20 -34 1z" />
    <path d="M1722 1430 c-2 -19 4 -32 16 -39 14 -8 18 -6 18 10 0 12 -5 18 -13
15 -7 -3 -13 -1 -13 4 0 6 4 10 10 10 5 0 7 7 4 15 -10 24 -20 17 -22 -15z" />
    <path d="M1216 1420 c-12 -25 -11 -27 7 -26 13 1 23 10 27 27 10 35 -16 35
-34 -1z" />
    <path d="M1263 1388 c-13 -6 -23 -15 -23 -20 0 -14 16 -9 35 12 20 22 19 23
-12 8z" />
    <path d="M1274 1358 c-3 -4 0 -8 5 -8 6 0 11 -7 11 -15 0 -8 5 -15 10 -15 6 0
10 -7 10 -16 0 -9 7 -14 17 -12 9 2 16 6 15 11 -1 4 -4 6 -5 5 -10 -7 -38 28
-34 42 4 17 -19 24 -29 8z" />
    <path d="M1479 1292 c-3 -20 -2 -29 4 -23 5 5 7 19 5 32 -3 20 -5 19 -9 -9z" />
    <path d="M1360 1219 c0 -27 17 -32 22 -6 3 15 0 24 -9 24 -7 0 -13 -8 -13 -18z" />
    <path d="M1617 1211 c-3 -12 1 -22 10 -25 11 -5 13 -1 8 15 -5 16 -4 19 5 14
9 -5 11 -4 6 3 -11 18 -23 14 -29 -7z" />
    <path d="M1444 1161 c4 -5 1 -11 -5 -13 -7 -2 -7 -8 3 -15 21 -18 46 0 29 21
-14 17 -36 22 -27 7z" />
    <path d="M1448 1079 c-10 -11 -18 -21 -18 -24 0 -11 28 -4 40 10 19 23 -2 35
-22 14z" />
    <path d="M1476 1004 c-9 -24 -7 -28 9 -14 17 14 20 30 6 30 -5 0 -12 -7 -15
-16z" />
  </g>
  <g transform="translate(0.000000,301.000000) scale(0.100000,-0.100000)" fill="#95e7e2" stroke="none">
    <path d="M790 2036 c0 -8 7 -21 15 -30 8 -8 15 -19 15 -25 0 -6 7 -11 16 -11
9 0 14 3 12 8 -3 4 -11 22 -18 40 -15 32 -40 44 -40 18z" />
    <path d="M2127 2010 c-21 -25 -22 -40 -2 -40 8 0 15 7 15 15 0 8 5 15 10 15 6
0 10 7 10 15 0 21 -12 19 -33 -5z" />
    <path d="M975 1968 c-11 -6 -22 -12 -23 -14 -2 -1 -1 -12 3 -23 8 -27 29 -28
22 -1 -5 20 0 20 214 20 139 0 219 4 219 10 0 6 -69 10 -187 10 -104 0 -197 2
-208 5 -11 3 -29 0 -40 -7z" />
    <path d="M1519 1959 c-12 -9 -19 -21 -15 -28 10 -16 26 -14 26 4 0 13 32 15
229 15 224 0 229 0 224 -20 -7 -25 13 -26 26 -2 6 11 5 22 -2 32 -18 23 -458
22 -488 -1z" />
    <path d="M1430 1933 c0 -26 15 -31 24 -7 9 24 7 31 -9 31 -9 0 -15 -10 -15
-24z" />
    <path d="M850 1937 c0 -7 8 -22 19 -33 10 -11 22 -30 25 -42 10 -30 36 -29 28
1 -3 12 -8 24 -11 27 -4 3 -14 17 -24 33 -18 29 -37 36 -37 14z" />
    <path d="M2077 1930 c-9 -11 -17 -26 -17 -34 0 -7 -7 -19 -15 -26 -8 -7 -15
-16 -15 -21 0 -5 7 -9 15 -9 8 0 15 7 15 15 0 8 4 15 10 15 5 0 12 11 16 25 3
14 10 25 15 25 5 0 9 7 9 15 0 21 -12 19 -33 -5z" />
    <path d="M999 1856 c33 -58 46 -76 53 -76 13 0 9 28 -7 44 -8 8 -15 19 -15 25
0 6 -4 11 -10 11 -5 0 -10 7 -10 15 0 8 -7 15 -15 15 -12 0 -11 -6 4 -34z" />
    <path d="M1950 1875 c0 -8 -4 -15 -10 -15 -5 0 -12 -11 -16 -25 -3 -14 -10
-25 -15 -25 -5 0 -9 -7 -9 -15 0 -32 25 -8 60 58 17 31 18 37 5 37 -8 0 -15
-7 -15 -15z" />
    <path d="M1430 1780 c0 -27 5 -50 10 -50 6 0 10 23 10 50 0 28 -4 50 -10 50
-5 0 -10 -22 -10 -50z" />
    <path d="M930 1805 c0 -8 5 -15 10 -15 6 0 10 -7 10 -15 0 -8 7 -15 15 -15 8
0 15 7 15 16 0 8 -4 12 -10 9 -5 -3 -10 3 -10 14 0 12 -7 21 -15 21 -8 0 -15
-7 -15 -15z" />
    <path d="M1996 1790 c-12 -26 -12 -30 0 -30 8 0 14 7 14 15 0 8 5 15 10 15 6
0 10 7 10 15 0 25 -18 17 -34 -15z" />
    <path d="M1870 1745 c0 -8 -4 -15 -10 -15 -5 0 -10 -7 -10 -15 0 -23 16 -18
34 10 20 30 20 35 1 35 -8 0 -15 -7 -15 -15z" />
    <path d="M1070 1744 c0 -4 9 -22 21 -40 22 -36 39 -44 39 -19 0 8 -4 15 -9 15
-5 0 -12 11 -15 25 -5 21 -36 37 -36 19z" />
    <path d="M980 1725 c0 -8 5 -15 10 -15 6 0 10 -7 10 -15 0 -8 6 -15 14 -15 12
0 12 5 3 30 -12 31 -37 41 -37 15z" />
    <path d="M1957 1733 c-12 -11 -8 -23 8 -23 8 0 15 7 15 15 0 16 -12 20 -23 8z" />
    <path d="M1927 1683 c-12 -11 -8 -23 8 -23 8 0 15 7 15 15 0 16 -12 20 -23 8z" />
    <path d="M1820 1665 c0 -8 -4 -15 -10 -15 -5 0 -10 -7 -10 -15 0 -26 25 -16
37 15 9 25 9 30 -3 30 -8 0 -14 -7 -14 -15z" />
    <path d="M1030 1645 c0 -8 7 -15 15 -15 9 0 12 6 9 15 -4 8 -10 15 -15 15 -5
0 -9 -7 -9 -15z" />
    <path d="M1144 1621 c9 -16 22 -31 29 -34 23 -9 252 -11 265 -3 28 17 4 21
-118 18 -131 -4 -160 3 -160 37 0 6 -7 11 -15 11 -14 0 -14 -3 -1 -29z" />
    <path d="M1060 1595 c0 -8 5 -15 10 -15 6 0 10 -7 10 -15 0 -8 7 -15 15 -15
14 0 14 3 0 30 -17 32 -35 40 -35 15z" />
    <path d="M1868 1588 c-24 -39 -29 -58 -13 -58 8 0 17 11 21 25 3 14 10 25 15
25 5 0 9 7 9 15 0 22 -16 18 -32 -7z" />
    <path d="M1770 1584 c0 -9 5 -14 12 -12 18 6 21 28 4 28 -9 0 -16 -7 -16 -16z" />
    <path d="M1740 1535 c0 -8 -4 -15 -9 -15 -5 0 -13 -10 -17 -22 -3 -12 -13 -28
-20 -36 -18 -18 -18 -42 1 -42 9 0 15 9 15 21 0 11 14 40 30 65 24 33 27 44
15 44 -8 0 -15 -7 -15 -15z" />
    <path d="M1207 1533 c-12 -11 -8 -23 8 -23 8 0 15 7 15 15 0 16 -12 20 -23 8z" />
    <path d="M1110 1515 c0 -8 7 -15 15 -15 9 0 12 6 9 15 -4 8 -10 15 -15 15 -5
0 -9 -7 -9 -15z" />
    <path d="M1816 1495 c-3 -9 0 -15 9 -15 8 0 15 7 15 15 0 8 -4 15 -9 15 -5 0
-11 -7 -15 -15z" />
    <path d="M1236 1475 c4 -8 10 -15 15 -15 5 0 9 7 9 15 0 8 -7 15 -15 15 -9 0
-12 -6 -9 -15z" />
    <path d="M1140 1465 c0 -8 5 -15 10 -15 6 0 10 -7 10 -15 0 -8 7 -15 16 -15
13 0 13 4 -3 30 -19 32 -33 39 -33 15z" />
    <path d="M1262 1428 c6 -18 28 -21 28 -4 0 9 -7 16 -16 16 -9 0 -14 -5 -12
-12z" />
    <path d="M1767 1423 c-12 -11 -8 -23 8 -23 8 0 15 7 15 15 0 16 -12 20 -23 8z" />
    <path d="M1636 1374 c-15 -40 4 -48 22 -9 9 20 9 25 -2 25 -8 0 -17 -7 -20
-16z" />
    <path d="M1734 1358 c-11 -13 -23 -32 -27 -41 -3 -9 -10 -17 -15 -17 -5 0 -9
-7 -9 -15 0 -8 6 -15 14 -15 7 0 13 7 13 15 0 8 4 15 9 15 5 0 13 10 17 23 4
12 11 25 17 28 5 4 8 12 6 18 -3 8 -12 3 -25 -11z" />
    <path d="M1240 1305 c0 -8 7 -15 15 -15 9 0 12 6 9 15 -4 8 -10 15 -15 15 -5
0 -9 -7 -9 -15z" />
    <path d="M1356 1280 c16 -32 34 -40 34 -15 0 8 -4 15 -10 15 -5 0 -10 7 -10
15 0 8 -6 15 -14 15 -12 0 -12 -4 0 -30z" />
    <path d="M1499 1268 c-2 -47 3 -103 9 -110 4 -4 14 -3 22 3 11 8 12 12 3 16
-8 3 -13 25 -13 59 0 51 -19 80 -21 32z" />
    <path d="M1580 1279 c0 -6 -7 -17 -15 -25 -8 -9 -15 -23 -15 -32 0 -11 10 -5
30 18 33 40 36 50 15 50 -8 0 -15 -5 -15 -11z" />
    <path d="M1270 1255 c0 -8 5 -15 10 -15 6 0 10 -7 10 -15 0 -8 7 -15 15 -15
19 0 19 5 -1 35 -18 28 -34 33 -34 10z" />
    <path d="M1647 1220 c-16 -26 -16 -30 -3 -30 9 0 16 7 16 15 0 8 5 15 10 15 6
0 10 7 10 15 0 24 -14 17 -33 -15z" />
    <path d="M1440 1205 c0 -24 5 -35 15 -35 15 0 20 26 9 54 -11 28 -24 17 -24
-19z" />
    <path d="M1396 1215 c4 -8 10 -15 15 -15 5 0 9 7 9 15 0 8 -7 15 -15 15 -9 0
-12 -6 -9 -15z" />
    <path d="M1320 1175 c0 -8 5 -15 10 -15 6 0 10 -7 10 -15 0 -8 5 -15 10 -15
13 0 13 16 0 41 -13 23 -30 25 -30 4z" />
    <path d="M1600 1155 c0 -8 7 -15 15 -15 8 0 15 7 15 15 0 8 -7 15 -15 15 -8 0
-15 -7 -15 -15z" />
    <path d="M1576 1105 c-3 -9 0 -15 9 -15 8 0 15 7 15 15 0 8 -4 15 -9 15 -5 0
-11 -7 -15 -15z" />
    <path d="M1370 1095 c0 -8 4 -15 9 -15 5 0 12 -11 15 -25 4 -14 11 -25 16 -25
6 0 10 -7 10 -15 0 -8 5 -15 10 -15 6 0 10 -6 10 -13 0 -18 34 -57 49 -57 6 0
11 7 11 15 0 8 -7 15 -15 15 -9 0 -20 12 -26 27 -6 15 -13 30 -17 33 -4 3 -20
24 -35 48 -29 45 -37 51 -37 27z" />
    <path d="M1527 1033 c-12 -11 -8 -23 8 -23 8 0 15 7 15 15 0 16 -12 20 -23 8z" />
  </g>
  <g transform="translate(0.000000,301.000000) scale(0.100000,-0.100000)" fill="#b1c0c0" stroke="none">
    <path d="M820 2050 c0 -6 28 -10 65 -10 37 0 65 4 65 10 0 6 -28 10 -65 10
-37 0 -65 -4 -65 -10z" />
    <path d="M1390 2050 c0 -6 133 -10 380 -10 331 0 380 -2 380 -15 0 -8 -4 -15
-10 -15 -5 0 -10 -7 -10 -15 0 -8 3 -15 8 -15 11 0 39 54 34 68 -5 16 -782 18
-782 2z" />
    <path d="M980 1950 c0 -6 70 -10 190 -10 120 0 190 4 190 10 0 6 -70 10 -190
10 -120 0 -190 -4 -190 -10z" />
    <path d="M1610 1950 c0 -5 11 -10 25 -10 14 0 25 5 25 10 0 6 -11 10 -25 10
-14 0 -25 -4 -25 -10z" />
    <path d="M1680 1950 c0 -6 48 -10 125 -10 77 0 125 4 125 10 0 6 -48 10 -125
10 -77 0 -125 -4 -125 -10z" />
    <path d="M1974 1935 c1 -32 21 -32 24 0 1 16 -3 25 -12 25 -9 0 -13 -10 -12
-25z" />
    <path d="M2100 1944 c0 -14 3 -14 15 -4 8 7 15 14 15 16 0 2 -7 4 -15 4 -8 0
-15 -7 -15 -16z" />
    <path d="M970 1922 c0 -15 37 -58 44 -51 3 3 -6 18 -19 34 -13 17 -24 24 -25
17z" />
    <path d="M1946 1875 c-3 -9 0 -15 8 -15 7 0 13 7 13 15 0 8 -4 15 -8 15 -4 0
-9 -7 -13 -15z" />
    <path d="M1430 1844 c0 -21 4 -33 10 -29 6 3 10 19 10 36 0 16 -4 29 -10 29
-5 0 -10 -16 -10 -36z" />
    <path d="M2037 1839 c-10 -11 -17 -25 -14 -32 2 -6 13 4 26 21 25 35 16 44
-12 11z" />
    <path d="M1020 1840 c0 -12 32 -50 42 -50 4 0 -1 13 -10 30 -17 30 -32 39 -32
20z" />
    <path d="M1510 1750 c0 -60 4 -100 10 -100 6 0 10 40 10 100 0 60 -4 100 -10
100 -6 0 -10 -40 -10 -100z" />
    <path d="M1901 1802 c-18 -26 -19 -32 -7 -32 9 0 16 6 16 14 0 8 5 16 12 18 6
2 9 10 6 18 -3 9 -12 3 -27 -18z" />
    <path d="M936 1785 c4 -8 10 -15 15 -15 5 0 9 7 9 15 0 8 -7 15 -15 15 -9 0
-12 -6 -9 -15z" />
    <path d="M1070 1762 c0 -15 37 -58 44 -51 3 3 -6 18 -19 34 -13 17 -24 24 -25
17z" />
    <path d="M960 1746 c0 -2 7 -9 15 -16 12 -10 15 -10 15 4 0 9 -7 16 -15 16 -8
0 -15 -2 -15 -4z" />
    <path d="M1826 1685 c-3 -9 0 -15 9 -15 8 0 15 7 15 15 0 8 -4 15 -9 15 -5 0
-11 -7 -15 -15z" />
    <path d="M1120 1675 c0 -8 7 -15 15 -15 9 0 12 6 9 15 -4 8 -10 15 -15 15 -5
0 -9 -7 -9 -15z" />
    <path d="M1890 1605 c0 -8 4 -15 9 -15 5 0 11 7 15 15 3 9 0 15 -9 15 -8 0
-15 -7 -15 -15z" />
    <path d="M1230 1526 c0 -9 7 -12 20 -9 11 3 20 9 20 14 0 5 -9 9 -20 9 -11 0
-20 -6 -20 -14z" />
    <path d="M1715 1500 c-15 -25 -32 -51 -38 -57 -6 -9 -6 -13 1 -13 6 0 21 17
33 38 13 20 27 40 32 43 5 4 7 13 5 20 -3 9 -16 -4 -33 -31z" />
    <path d="M1138 1460 c18 -32 32 -39 32 -15 0 8 -4 15 -10 15 -5 0 -10 7 -10
15 0 8 -7 15 -15 15 -12 0 -11 -5 3 -30z" />
    <path d="M1810 1475 c0 -8 4 -15 9 -15 5 0 11 7 15 15 3 9 0 15 -9 15 -8 0
-15 -7 -15 -15z" />
    <path d="M1250 1472 c0 -15 37 -58 44 -51 3 3 -6 18 -19 34 -13 17 -24 24 -25
17z" />
    <path d="M1170 1406 c0 -2 7 -9 15 -16 12 -10 15 -10 15 4 0 9 -7 16 -15 16
-8 0 -15 -2 -15 -4z" />
    <path d="M1646 1395 c-3 -9 0 -15 9 -15 8 0 15 7 15 15 0 8 -4 15 -9 15 -5 0
-11 -7 -15 -15z" />
    <path d="M1750 1375 c0 -8 4 -15 9 -15 5 0 11 7 15 15 3 9 0 15 -9 15 -8 0
-15 -7 -15 -15z" />
    <path d="M1616 1345 c-3 -9 0 -15 9 -15 8 0 15 7 15 15 0 8 -4 15 -9 15 -5 0
-11 -7 -15 -15z" />
    <path d="M1226 1315 c4 -8 10 -15 15 -15 5 0 9 7 9 15 0 8 -7 15 -15 15 -9 0
-12 -6 -9 -15z" />
    <path d="M1250 1276 c0 -2 7 -9 15 -16 12 -10 15 -10 15 4 0 9 -7 16 -15 16
-8 0 -15 -2 -15 -4z" />
    <path d="M1570 1265 c-10 -12 -10 -15 4 -15 9 0 16 7 16 15 0 8 -2 15 -4 15
-2 0 -9 -7 -16 -15z" />
    <path d="M1670 1244 c0 -14 3 -14 15 -4 8 7 15 14 15 16 0 2 -7 4 -15 4 -8 0
-15 -7 -15 -16z" />
    <path d="M1647 1203 c-10 -9 -9 -23 2 -23 5 0 11 7 15 15 5 15 -5 20 -17 8z" />
    <path d="M1351 1118 c13 -17 24 -27 26 -21 5 13 -27 53 -40 53 -5 0 2 -14 14
-32z" />
    <path d="M1590 1115 c0 -8 -4 -15 -10 -15 -5 0 -10 -7 -10 -15 0 -24 14 -17
32 15 14 25 15 30 3 30 -8 0 -15 -7 -15 -15z" />
    <path d="M1540 1035 c0 -8 4 -15 9 -15 5 0 11 7 15 15 3 9 0 15 -9 15 -8 0
-15 -7 -15 -15z" />
    <path d="M1477 943 c-9 -2 -15 -9 -12 -14 9 -14 32 -11 39 6 6 15 4 16 -27 8z" />
  </g>
  <g transform="translate(0.000000,301.000000) scale(0.100000,-0.100000)" fill="#9dfcf8" stroke="none">
    <path d="M814 2019 c5 -35 32 -79 47 -79 6 0 8 -4 4 -9 -3 -5 0 -13 6 -16 22
-14 20 5 -5 41 -14 20 -23 41 -20 46 3 4 -2 11 -11 14 -14 6 -14 8 2 20 17 12
16 13 -5 14 -20 0 -23 -4 -18 -31z" />
    <path d="M2005 2040 c3 -5 12 -10 20 -10 8 0 17 5 20 10 4 6 -5 10 -20 10 -15
0 -24 -4 -20 -10z" />
    <path d="M2128 2037 c11 -13 1 -40 -14 -37 -5 1 -10 -3 -12 -9 -2 -5 6 -9 17
-8 19 1 25 9 22 30 0 4 4 7 9 7 6 0 10 7 10 15 0 9 -9 15 -21 15 -16 0 -19 -3
-11 -13z" />
    <path d="M1536 1972 c-3 -5 8 -6 25 -4 16 2 29 6 29 8 0 8 -49 4 -54 -4z" />
    <path d="M2078 1935 c-16 -13 -24 -27 -18 -30 5 -3 14 4 20 15 6 11 15 18 21
15 5 -4 9 1 9 9 0 20 0 20 -32 -9z" />
    <path d="M957 1943 c-5 -8 -3 -13 3 -13 8 0 8 -6 0 -20 -8 -16 -8 -20 2 -18 7
2 12 -2 11 -9 -2 -7 4 -10 12 -7 16 6 21 24 7 24 -5 0 -13 12 -18 28 -7 18
-12 23 -17 15z" />
    <path d="M1995 1940 c-3 -5 -3 -10 2 -10 4 0 0 -5 -9 -11 -10 -5 -18 -18 -18
-27 1 -15 3 -14 16 3 8 11 19 19 23 18 4 -1 8 7 8 18 2 20 -12 26 -22 9z" />
    <path d="M890 1890 c0 -16 23 -60 32 -60 4 0 8 -6 8 -13 0 -8 7 -14 15 -14 20
0 19 13 -1 21 -8 3 -12 10 -9 16 3 5 0 10 -8 10 -10 0 -13 7 -10 19 3 11 -2
21 -11 24 -9 4 -16 2 -16 -3z" />
    <path d="M2041 1866 c-8 -9 -11 -19 -7 -23 9 -9 29 13 24 27 -2 8 -8 7 -17 -4z" />
    <path d="M1932 1845 c-16 -34 -15 -42 3 -42 8 0 12 4 9 8 -2 4 1 13 8 21 18
19 20 38 5 38 -8 0 -19 -11 -25 -25z" />
    <path d="M997 1854 c-15 -15 -6 -26 10 -13 10 9 14 9 10 2 -5 -7 1 -21 12 -32
11 -11 17 -21 15 -24 -2 -2 2 -10 11 -17 12 -10 15 -10 15 1 -1 17 -30 57 -31
43 -1 -5 -4 2 -8 15 -7 25 -22 36 -34 25z" />
    <path d="M2011 1816 c-8 -9 -11 -19 -7 -23 9 -9 29 13 24 27 -2 8 -8 7 -17 -4z" />
    <path d="M966 1775 c-3 -9 3 -22 14 -32 10 -9 17 -20 14 -25 -3 -4 2 -8 11 -8
15 0 4 27 -31 78 -1 2 -4 -4 -8 -13z" />
    <path d="M1956 1727 c-15 -26 -33 -47 -39 -47 -6 0 -7 -3 -4 -7 4 -3 2 -12 -5
-20 -12 -15 -5 -28 11 -19 17 11 73 115 69 128 -3 7 -17 -9 -32 -35z" />
    <path d="M1871 1741 c-6 -10 -8 -21 -4 -24 3 -4 -2 -9 -11 -13 -9 -3 -16 -12
-16 -20 0 -8 6 -11 15 -8 8 3 13 11 12 17 -1 7 3 11 9 10 6 -1 11 3 11 10 0 7
4 20 8 30 10 23 -12 22 -24 -2z" />
    <path d="M1083 1704 c0 -7 2 -12 5 -9 2 2 13 -6 23 -18 13 -16 18 -18 18 -7 0
18 -20 44 -35 47 -6 1 -11 -5 -11 -13z" />
    <path d="M1820 1661 c0 -6 0 -13 0 -16 0 -3 -9 -14 -20 -25 -12 -12 -18 -25
-15 -29 2 -5 -2 -11 -10 -15 -8 -3 -15 -12 -15 -21 0 -12 3 -13 19 -3 11 7 18
15 15 19 -2 4 4 17 14 30 25 32 33 57 22 64 -6 4 -10 1 -10 -4z" />
    <path d="M1139 1623 c-7 -10 -9 -15 -5 -11 5 4 15 0 22 -10 18 -24 29 -8 11
18 -13 19 -15 20 -28 3z" />
    <path d="M1060 1603 c0 -9 3 -13 7 -9 4 3 12 -8 17 -26 12 -36 36 -50 33 -20
0 11 -6 18 -14 15 -8 -3 -11 2 -9 14 3 11 -4 24 -15 31 -16 10 -19 9 -19 -5z" />
    <path d="M1480 1560 c0 -5 7 -10 15 -10 8 0 15 5 15 10 0 6 -7 10 -15 10 -8 0
-15 -4 -15 -10z" />
    <path d="M1244 1538 c-3 -4 12 -8 32 -8 21 0 34 3 30 8 -10 10 -56 10 -62 0z" />
    <path d="M1415 1540 c-3 -5 1 -10 9 -10 12 0 16 -10 16 -36 0 -21 4 -33 10
-29 18 11 11 64 -9 75 -13 7 -22 7 -26 0z" />
    <path d="M1200 1530 c-13 -8 -12 -11 5 -24 14 -10 21 -11 24 -3 2 6 -1 13 -8
15 -6 2 -9 8 -5 13 7 11 3 11 -16 -1z" />
    <path d="M1130 1495 c0 -8 7 -15 16 -15 14 0 14 3 4 15 -7 8 -14 15 -16 15 -2
0 -4 -7 -4 -15z" />
    <path d="M1686 1444 c-10 -25 -7 -34 9 -28 17 7 20 30 6 38 -5 3 -12 -1 -15
-10z" />
    <path d="M1260 1435 c0 -15 55 -86 58 -75 3 7 0 15 -4 19 -5 3 -15 18 -21 34
-11 23 -33 38 -33 22z" />
    <path d="M1768 1427 c-11 -9 -14 -18 -7 -28 8 -12 10 -12 19 1 9 13 14 40 8
40 -2 0 -11 -6 -20 -13z" />
    <path d="M1170 1423 c0 -5 9 -19 20 -31 11 -12 20 -26 20 -32 0 -5 4 -10 9
-10 5 0 12 -12 15 -26 5 -18 10 -24 17 -17 6 6 -3 28 -26 64 -35 52 -55 71
-55 52z" />
    <path d="M1635 1361 c-30 -49 -33 -71 -5 -46 12 10 18 25 16 32 -3 7 -1 13 5
13 6 0 8 4 4 9 -3 5 3 11 12 13 13 2 14 6 6 11 -8 5 -21 -6 -38 -32z" />
    <path d="M1313 1320 c-8 -12 -9 -21 -3 -25 6 -3 10 1 10 11 0 14 2 14 16 3 14
-12 16 -11 13 5 -5 27 -22 30 -36 6z" />
    <path d="M1690 1300 c-10 -6 -11 -10 -2 -10 7 0 4 -8 -8 -20 -12 -12 -18 -26
-14 -31 4 -7 15 1 26 20 22 35 21 56 -2 41z" />
    <path d="M1583 1275 c-8 -22 6 -33 17 -15 13 20 12 30 0 30 -6 0 -13 -7 -17
-15z" />
    <path d="M1360 1273 c0 -5 9 -19 20 -33 15 -19 20 -21 20 -9 0 9 -7 20 -16 23
-8 3 -12 10 -9 16 3 5 1 10 -4 10 -6 0 -11 -3 -11 -7z" />
    <path d="M1285 1251 c8 -42 28 -54 39 -25 5 14 4 15 -9 4 -13 -11 -14 -10 -10
2 3 8 -1 20 -9 27 -13 11 -15 9 -11 -8z" />
    <path d="M1649 1224 c-1 -5 -1 -12 0 -16 0 -5 -3 -8 -9 -8 -5 0 -10 -4 -10
-10 0 -5 4 -10 9 -10 12 0 25 39 17 47 -3 4 -7 2 -7 -3z" />
    <path d="M1457 1214 c-3 -3 -3 -12 0 -20 3 -8 -1 -14 -10 -14 -8 0 -17 6 -20
13 -2 6 -8 9 -12 5 -11 -11 24 -41 40 -34 8 3 15 17 15 31 0 26 -2 29 -13 19z" />
    <path d="M1321 1190 c0 -21 26 -53 33 -42 3 6 -3 21 -14 33 -13 17 -19 19 -19
9z" />
    <path d="M1527 1186 c-6 -14 0 -26 13 -26 3 0 6 9 7 20 2 23 -12 27 -20 6z" />
    <path d="M1595 1170 c3 -5 1 -19 -5 -31 -13 -23 -5 -38 10 -23 18 18 20 52 4
58 -8 3 -12 1 -9 -4z" />
    <path d="M1564 1092 c-13 -8 -29 -52 -25 -66 1 -5 -4 -4 -12 2 -12 10 -14 8
-14 -13 0 -35 8 -31 40 20 28 44 33 72 11 57z" />
  </g>
  <g transform="translate(0.000000,301.000000) scale(0.100000,-0.100000)" fill="#83d5ce" stroke="none">
    <path d="M1330 2048 c0 -5 182 -8 404 -8 222 0 411 -3 420 -6 10 -4 16 -1 16
7 0 12 -73 14 -420 14 -231 0 -420 -3 -420 -7z" />
    <path d="M830 1965 c0 -8 7 -15 16 -15 14 0 14 3 4 15 -7 8 -14 15 -16 15 -2
0 -4 -7 -4 -15z" />
    <path d="M2107 1973 c-12 -11 -8 -23 8 -23 8 0 15 7 15 15 0 16 -12 20 -23 8z" />
    <path d="M1990 1945 c0 -16 16 -20 24 -6 3 5 -1 11 -9 15 -9 3 -15 0 -15 -9z" />
    <path d="M1518 1934 c-5 -4 -8 -35 -7 -68 0 -50 2 -57 10 -36 11 27 8 116 -3
104z" />
    <path d="M970 1912 c0 -11 7 -22 15 -26 8 -3 15 -12 15 -21 0 -8 5 -15 10 -15
6 0 10 7 10 15 0 8 -4 15 -10 15 -5 0 -10 5 -10 11 0 6 -7 17 -15 25 -13 14
-15 13 -15 -4z" />
    <path d="M2072 1918 c6 -18 28 -21 28 -4 0 9 -7 16 -16 16 -9 0 -14 -5 -12
-12z" />
    <path d="M1960 1895 c0 -8 4 -15 9 -15 5 0 11 7 15 15 3 9 0 15 -9 15 -8 0
-15 -7 -15 -15z" />
    <path d="M880 1885 c0 -8 5 -15 10 -15 6 0 10 7 10 15 0 8 -4 15 -10 15 -5 0
-10 -7 -10 -15z" />
    <path d="M2026 1835 c-3 -9 0 -15 9 -15 8 0 15 7 15 15 0 8 -4 15 -9 15 -5 0
-11 -7 -15 -15z" />
    <path d="M1050 1795 c0 -2 5 -16 12 -30 16 -35 29 -31 15 5 -10 25 -27 42 -27
25z" />
    <path d="M1880 1765 c0 -8 4 -15 9 -15 5 0 11 7 15 15 3 9 0 15 -9 15 -8 0
-15 -7 -15 -15z" />
    <path d="M960 1755 c0 -8 6 -15 13 -15 8 0 14 7 14 15 0 8 -6 15 -14 15 -7 0
-13 -7 -13 -15z" />
    <path d="M1976 1755 c-3 -9 0 -15 9 -15 8 0 15 7 15 15 0 8 -4 15 -9 15 -5 0
-11 -7 -15 -15z" />
    <path d="M1430 1670 c0 -52 4 -79 10 -75 6 3 10 37 10 75 0 38 -4 72 -10 75
-6 4 -10 -23 -10 -75z" />
    <path d="M1100 1705 c0 -8 5 -15 10 -15 6 0 10 7 10 15 0 8 -4 15 -10 15 -5 0
-10 -7 -10 -15z" />
    <path d="M1950 1705 c-10 -12 -10 -15 4 -15 9 0 16 7 16 15 0 8 -2 15 -4 15
-2 0 -9 -7 -16 -15z" />
    <path d="M1833 1685 c0 -8 4 -15 8 -15 4 0 9 7 13 15 3 9 0 15 -8 15 -7 0 -13
-7 -13 -15z" />
    <path d="M1010 1675 c0 -8 7 -15 16 -15 14 0 14 3 4 15 -7 8 -14 15 -16 15 -2
0 -4 -7 -4 -15z" />
    <path d="M1126 1655 c4 -8 10 -15 15 -15 5 0 9 7 9 15 0 8 -7 15 -15 15 -9 0
-12 -6 -9 -15z" />
    <path d="M1919 1653 c-27 -31 -31 -43 -15 -43 9 0 16 6 16 14 0 8 5 16 12 18
6 2 9 10 7 17 -3 9 -9 7 -20 -6z" />
    <path d="M1780 1605 c0 -8 4 -15 9 -15 5 0 11 7 15 15 3 9 0 15 -9 15 -8 0
-15 -7 -15 -15z" />
    <path d="M1867 1584 c-8 -8 1 -24 14 -24 5 0 9 7 9 15 0 15 -12 20 -23 9z" />
    <path d="M1750 1555 c0 -8 4 -15 9 -15 5 0 11 7 15 15 3 9 0 15 -9 15 -8 0
-15 -7 -15 -15z" />
    <path d="M1090 1545 c0 -8 7 -15 16 -15 14 0 14 3 4 15 -7 8 -14 15 -16 15 -2
0 -4 -7 -4 -15z" />
    <path d="M1430 1525 c0 -8 5 -15 10 -15 6 0 10 7 10 15 0 8 -4 15 -10 15 -5 0
-10 -7 -10 -15z" />
    <path d="M1836 1525 c-3 -9 0 -15 9 -15 8 0 15 7 15 15 0 8 -4 15 -9 15 -5 0
-11 -7 -15 -15z" />
    <path d="M1120 1495 c0 -8 7 -15 15 -15 9 0 12 6 9 15 -4 8 -10 15 -15 15 -5
0 -9 -7 -9 -15z" />
    <path d="M1222 1498 c6 -18 28 -21 28 -4 0 9 -7 16 -16 16 -9 0 -14 -5 -12
-12z" />
    <path d="M1798 1460 c-14 -25 -15 -30 -3 -30 8 0 15 7 15 15 0 8 4 15 8 15 5
0 9 7 9 15 0 23 -10 18 -29 -15z" />
    <path d="M1252 1448 c6 -18 28 -21 28 -4 0 9 -7 16 -16 16 -9 0 -14 -5 -12
-12z" />
    <path d="M1670 1425 c0 -8 -4 -15 -8 -15 -5 0 -9 -6 -9 -13 0 -8 6 -14 13 -14
7 0 11 4 8 8 -2 4 0 10 6 14 13 8 13 35 0 35 -5 0 -10 -7 -10 -15z" />
    <path d="M1170 1418 c0 -10 4 -18 9 -18 5 0 12 -11 15 -25 4 -14 11 -25 16
-25 6 0 10 -7 10 -15 0 -8 7 -15 16 -15 13 0 13 4 -3 30 -32 55 -62 87 -63 68z" />
    <path d="M1304 1368 c14 -23 32 -50 40 -60 9 -10 16 -23 16 -28 0 -6 5 -10 10
-10 6 0 10 7 10 15 0 8 -4 15 -9 15 -5 0 -12 11 -15 25 -4 14 -11 25 -16 25
-6 0 -10 7 -10 15 0 8 -4 15 -10 15 -5 0 -10 7 -10 15 0 8 -7 15 -16 15 -12 0
-10 -8 10 -42z" />
    <path d="M1760 1395 c-10 -12 -10 -15 4 -15 9 0 16 7 16 15 0 8 -2 15 -4 15
-2 0 -9 -7 -16 -15z" />
    <path d="M1625 1350 c3 -5 1 -10 -4 -10 -6 0 -11 -7 -11 -16 0 -14 3 -14 15
-4 17 14 20 40 4 40 -5 0 -7 -4 -4 -10z" />
    <path d="M1680 1265 c-10 -12 -10 -15 4 -15 9 0 16 7 16 15 0 8 -2 15 -4 15
-2 0 -9 -7 -16 -15z" />
    <path d="M1386 1235 c4 -8 10 -15 15 -15 5 0 9 7 9 15 0 8 -7 15 -15 15 -9 0
-12 -6 -9 -15z" />
    <path d="M1536 1214 c-11 -27 -7 -37 9 -24 16 14 20 40 6 40 -5 0 -12 -7 -15
-16z" />
    <path d="M1650 1218 c0 -6 -7 -20 -17 -30 -15 -17 -15 -18 0 -18 10 0 17 7 17
15 0 8 5 15 10 15 6 0 10 7 10 15 0 8 -4 15 -10 15 -5 0 -10 -5 -10 -12z" />
    <path d="M1300 1205 c0 -8 7 -15 15 -15 9 0 12 6 9 15 -4 8 -10 15 -15 15 -5
0 -9 -7 -9 -15z" />
    <path d="M1410 1196 c0 -2 7 -9 15 -16 12 -10 15 -10 15 4 0 9 -7 16 -15 16
-8 0 -15 -2 -15 -4z" />
    <path d="M1596 1135 c-3 -9 0 -15 9 -15 8 0 15 7 15 15 0 8 -4 15 -9 15 -5 0
-11 -7 -15 -15z" />
    <path d="M1350 1125 c0 -8 7 -15 16 -15 14 0 14 3 4 15 -7 8 -14 15 -16 15 -2
0 -4 -7 -4 -15z" />
    <path d="M1558 1070 c-14 -25 -15 -30 -3 -30 8 0 15 7 15 15 0 8 4 15 8 15 5
0 9 7 9 15 0 23 -10 18 -29 -15z" />
    <path d="M1380 1075 c0 -8 5 -15 10 -15 6 0 10 7 10 15 0 8 -4 15 -10 15 -5 0
-10 -7 -10 -15z" />
    <path d="M1508 990 c-9 -17 -24 -30 -33 -30 -8 0 -15 -7 -15 -15 0 -8 7 -15
16 -15 8 0 12 5 9 11 -4 6 2 13 14 16 12 3 21 12 21 19 0 8 5 14 10 14 6 0 10
7 10 15 0 24 -14 17 -32 -15z" />
    <path d="M1430 994 c0 -17 22 -14 28 4 2 7 -3 12 -12 12 -9 0 -16 -7 -16 -16z" />
  </g>
  <g transform="translate(0.000000,301.000000) scale(0.100000,-0.100000)" fill="#c2cccc" stroke="none">
    <path d="M780 2044 c0 -17 22 -14 28 4 2 7 -3 12 -12 12 -9 0 -16 -7 -16 -16z" />
    <path d="M935 2050 c-8 -12 371 -13 430 -1 26 6 -41 9 -192 10 -145 1 -234 -3
-238 -9z" />
    <path d="M831 1958 c13 -17 24 -27 26 -21 5 13 -27 53 -40 53 -5 0 2 -14 14
-32z" />
    <path d="M970 1943 c0 -13 3 -14 11 -6 6 6 17 9 24 7 7 -3 16 -1 20 5 4 7 -5
11 -24 11 -23 0 -31 -5 -31 -17z" />
    <path d="M1345 1950 c3 -5 24 -10 46 -10 21 0 39 5 39 10 0 6 -21 10 -46 10
-27 0 -43 -4 -39 -10z" />
    <path d="M1530 1950 c0 -5 20 -10 44 -10 25 0 48 5 51 10 4 6 -13 10 -44 10
-28 0 -51 -4 -51 -10z" />
    <path d="M1645 1950 c3 -5 15 -10 25 -10 10 0 22 5 25 10 4 6 -7 10 -25 10
-18 0 -29 -4 -25 -10z" />
    <path d="M1915 1950 c3 -5 13 -10 21 -10 8 0 14 5 14 10 0 6 -9 10 -21 10 -11
0 -17 -4 -14 -10z" />
    <path d="M1960 1900 c-9 -16 -8 -20 5 -20 9 0 13 5 10 10 -3 6 -1 10 4 10 6 0
11 5 11 10 0 17 -19 11 -30 -10z" />
    <path d="M1434 1817 c-3 -8 -4 -49 -2 -93 3 -79 3 -79 8 14 5 92 4 104 -6 79z" />
    <path d="M1840 1705 c-10 -12 -10 -15 4 -15 9 0 16 7 16 15 0 8 -2 15 -4 15
-2 0 -9 -7 -16 -15z" />
    <path d="M1927 1659 c-10 -11 -17 -25 -14 -32 2 -6 13 4 26 21 25 35 16 44
-12 11z" />
    <path d="M1510 1621 c0 -28 5 -51 10 -51 6 0 10 20 10 44 0 25 -4 48 -10 51
-6 4 -10 -13 -10 -44z" />
    <path d="M1810 1655 c-10 -12 -10 -15 4 -15 9 0 16 7 16 15 0 8 -2 15 -4 15
-2 0 -9 -7 -16 -15z" />
    <path d="M1041 1618 c13 -17 24 -27 26 -21 5 13 -27 53 -40 53 -5 0 2 -14 14
-32z" />
    <path d="M1760 1575 c-10 -12 -10 -15 4 -15 9 0 16 7 16 15 0 8 -2 15 -4 15
-2 0 -9 -7 -16 -15z" />
    <path d="M1256 1531 c15 -15 184 -18 184 -3 0 9 -26 12 -97 12 -60 0 -93 -4
-87 -9z" />
    <path d="M1830 1504 c0 -14 3 -14 15 -4 8 7 15 14 15 16 0 2 -7 4 -15 4 -8 0
-15 -7 -15 -16z" />
    <path d="M1660 1415 c-10 -12 -10 -15 4 -15 9 0 16 7 16 15 0 8 -2 15 -4 15
-2 0 -9 -7 -16 -15z" />
    <path d="M1430 1395 c0 -8 5 -15 10 -15 6 0 10 7 10 15 0 8 -4 15 -10 15 -5 0
-10 -7 -10 -15z" />
    <path d="M1320 1355 c0 -8 7 -15 16 -15 14 0 14 3 4 15 -7 8 -14 15 -16 15 -2
0 -4 -7 -4 -15z" />
    <path d="M1200 1356 c0 -2 7 -9 15 -16 12 -10 15 -10 15 4 0 9 -7 16 -15 16
-8 0 -15 -2 -15 -4z" />
    <path d="M1600 1315 c-10 -12 -10 -15 4 -15 9 0 16 7 16 15 0 8 -2 15 -4 15
-2 0 -9 -7 -16 -15z" />
    <path d="M1301 1198 c13 -17 24 -27 26 -21 5 13 -27 53 -40 53 -5 0 2 -14 14
-32z" />
    <path d="M1412 1212 c2 -9 11 -18 22 -20 12 -3 17 1 14 14 -1 9 -11 18 -21 20
-12 2 -17 -3 -15 -14z" />
    <path d="M1560 1064 c0 -14 3 -14 15 -4 8 7 15 14 15 16 0 2 -7 4 -15 4 -8 0
-15 -7 -15 -16z" />
  </g>
  <g transform="translate(0.000000,301.000000) scale(0.100000,-0.100000)" fill="#7cc9c3" stroke="none">
    <path d="M794 2051 c-10 -10 -3 -19 14 -16 9 2 134 5 277 6 143 2 235 4 205 6
-96 5 -492 8 -496 4z" />
    <path d="M810 1995 c0 -8 5 -15 10 -15 6 0 10 7 10 15 0 8 -4 15 -10 15 -5 0
-10 -7 -10 -15z" />
    <path d="M860 1915 c0 -16 16 -20 24 -6 3 5 -1 11 -9 15 -9 3 -15 0 -15 -9z" />
    <path d="M2064 1893 c3 -7 1 -13 -4 -13 -6 0 -10 -7 -10 -15 0 -25 15 -17 26
13 9 23 8 29 -3 29 -8 0 -12 -6 -9 -14z" />
    <path d="M910 1833 c0 -7 6 -13 13 -13 8 0 14 6 14 13 0 8 -6 14 -14 14 -7 0
-13 -6 -13 -14z" />
    <path d="M2020 1815 c0 -8 -4 -15 -10 -15 -5 0 -10 -7 -10 -15 0 -8 -5 -15
-11 -15 -5 0 -7 -4 -4 -10 3 -5 1 -10 -4 -10 -6 0 -11 -7 -11 -15 0 -8 5 -15
10 -15 6 0 10 6 10 14 0 8 6 21 13 28 19 20 38 68 27 68 -6 0 -10 -7 -10 -15z" />
    <path d="M1513 1750 c0 -41 2 -58 4 -37 2 20 2 54 0 75 -2 20 -4 3 -4 -38z" />
    <path d="M943 1785 c0 -8 4 -15 8 -15 4 0 9 7 13 15 3 9 0 15 -8 15 -7 0 -13
-7 -13 -15z" />
    <path d="M983 1720 c11 -30 27 -35 35 -12 2 7 -3 12 -12 12 -10 0 -13 6 -10
15 4 9 0 15 -9 15 -13 0 -13 -5 -4 -30z" />
    <path d="M1860 1735 c0 -8 5 -15 10 -15 6 0 10 7 10 15 0 8 -4 15 -10 15 -5 0
-10 -7 -10 -15z" />
    <path d="M1940 1685 c0 -8 5 -15 10 -15 6 0 10 7 10 15 0 8 -4 15 -10 15 -5 0
-10 -7 -10 -15z" />
    <path d="M1020 1655 c0 -9 5 -15 11 -13 6 2 11 8 11 13 0 5 -5 11 -11 13 -6 2
-11 -4 -11 -13z" />
    <path d="M1808 1645 c-20 -27 -23 -38 -7 -33 6 2 10 7 9 12 -1 5 4 12 10 16 7
4 11 12 9 18 -2 6 -12 0 -21 -13z" />
    <path d="M1040 1626 c0 -9 4 -16 10 -16 5 0 12 -11 16 -25 7 -27 24 -34 24
-10 0 8 -4 15 -9 15 -5 0 -11 10 -13 22 -4 25 -28 37 -28 14z" />
    <path d="M1100 1525 c0 -9 5 -15 11 -13 6 2 11 8 11 13 0 5 -5 11 -11 13 -6 2
-11 -4 -11 -13z" />
    <path d="M1214 1523 c4 -25 26 -28 26 -4 0 12 -6 21 -14 21 -8 0 -13 -8 -12
-17z" />
    <path d="M1430 1486 c0 -25 5 -46 10 -46 6 0 10 18 10 39 0 22 -4 43 -10 46
-6 4 -10 -12 -10 -39z" />
    <path d="M1800 1455 c0 -8 -4 -15 -10 -15 -5 0 -10 -7 -10 -15 0 -21 16 -19
24 3 3 9 9 23 12 30 3 6 1 12 -5 12 -6 0 -11 -7 -11 -15z" />
    <path d="M1153 1445 c0 -9 4 -14 9 -13 5 2 10 8 10 13 0 5 -5 11 -10 13 -5 1
-9 -4 -9 -13z" />
    <path d="M1280 1415 c0 -8 5 -15 10 -15 6 0 10 7 10 15 0 8 -4 15 -10 15 -5 0
-10 -7 -10 -15z" />
    <path d="M1750 1375 c0 -8 -4 -15 -10 -15 -5 0 -10 -7 -10 -15 0 -8 5 -15 10
-15 6 0 10 7 10 15 0 8 4 15 8 15 5 0 9 7 9 15 0 8 -4 15 -9 15 -4 0 -8 -7 -8
-15z" />
    <path d="M1233 1315 c0 -8 4 -15 9 -15 4 0 8 -7 8 -15 0 -8 7 -15 15 -15 9 0
12 6 9 15 -4 8 -10 15 -15 15 -5 0 -9 7 -9 15 0 8 -4 15 -8 15 -5 0 -9 -7 -9
-15z" />
    <path d="M1605 1317 c-18 -21 -35 -67 -25 -67 6 0 10 5 10 11 0 7 7 17 16 24
9 6 15 18 13 27 -3 12 -7 13 -14 5z" />
    <path d="M1377 1264 c-8 -8 1 -24 14 -24 5 0 9 7 9 15 0 15 -12 20 -23 9z" />
    <path d="M1280 1235 c0 -8 5 -15 10 -15 6 0 10 7 10 15 0 8 -4 15 -10 15 -5 0
-10 -7 -10 -15z" />
    <path d="M1407 1213 c-3 -5 5 -19 19 -32 13 -13 24 -18 24 -12 0 17 -37 54
-43 44z" />
    <path d="M1323 1170 c12 -32 27 -40 27 -15 0 8 -4 15 -10 15 -5 0 -10 7 -10
15 0 8 -4 15 -9 15 -5 0 -4 -13 2 -30z" />
    <path d="M1520 1185 c0 -8 5 -15 10 -15 6 0 10 7 10 15 0 8 -4 15 -10 15 -5 0
-10 -7 -10 -15z" />
    <path d="M1617 1174 c-8 -8 1 -24 14 -24 5 0 9 7 9 15 0 15 -12 20 -23 9z" />
    <path d="M1410 1025 c0 -8 4 -15 9 -15 5 0 11 7 15 15 3 9 0 15 -9 15 -8 0
-15 -7 -15 -15z" />
    <path d="M1487 964 c-8 -8 1 -24 14 -24 5 0 9 7 9 15 0 15 -12 20 -23 9z" />
  </g>
  <g transform="translate(0.000000,301.000000) scale(0.100000,-0.100000)" fill="#9ef4ef" stroke="none">
    <path d="M2150 2035 c-7 -8 -9 -15 -4 -15 5 0 2 -5 -6 -10 -9 -6 -10 -10 -3
-10 13 0 38 38 30 46 -2 3 -10 -2 -17 -11z" />
    <path d="M805 2030 c-3 -5 -2 -17 3 -26 8 -14 10 -14 22 1 11 13 10 15 -4 9
-12 -5 -15 -2 -10 10 7 18 -1 22 -11 6z" />
    <path d="M2103 1976 c0 -27 11 -34 23 -15 3 6 0 18 -9 26 -13 13 -14 12 -14
-11z" />
    <path d="M2070 1921 c-6 -12 -8 -26 -5 -31 3 -6 1 -10 -5 -10 -6 0 -8 -5 -4
-11 9 -16 24 10 16 29 -3 10 -1 13 6 8 14 -9 27 13 14 26 -7 7 -14 3 -22 -11z" />
    <path d="M877 1913 c-3 -5 -2 -15 2 -22 7 -10 10 -10 16 -1 4 6 3 16 -3 22 -5
5 -12 6 -15 1z" />
    <path d="M960 1760 c0 -5 8 -14 18 -19 9 -6 13 -11 9 -11 -4 0 -3 -9 3 -20 6
-11 15 -18 21 -15 15 10 10 25 -8 25 -15 0 -16 2 -3 10 12 8 11 11 -8 16 -18
5 -20 9 -10 15 10 7 9 9 -4 9 -10 0 -18 -4 -18 -10z" />
    <path d="M1070 1743 c1 -18 18 -35 24 -24 4 6 4 16 1 21 -7 12 -25 13 -25 3z" />
    <path d="M1852 1716 c-8 -19 -8 -25 3 -29 8 -4 12 1 10 11 -1 9 2 20 7 23 7 4
7 9 1 12 -6 4 -15 -4 -21 -17z" />
    <path d="M1035 1653 c2 -10 4 -21 4 -24 1 -3 8 -6 17 -6 15 0 15 1 0 12 -8 7
-13 14 -10 17 3 4 1 9 -4 12 -6 3 -9 -2 -7 -11z" />
    <path d="M1115 1661 c-4 -7 0 -8 11 -4 12 4 15 3 10 -5 -4 -7 -2 -12 4 -12 14
0 8 22 -7 27 -6 2 -14 -1 -18 -6z" />
    <path d="M1800 1635 c-17 -20 -7 -30 17 -16 14 8 14 10 3 11 -13 0 -13 1 0 10
8 5 10 10 4 10 -6 0 -17 -7 -24 -15z" />
    <path d="M1905 1640 c-3 -5 -3 -10 2 -10 4 0 1 -5 -7 -10 -9 -6 -10 -10 -3
-10 7 0 17 9 23 20 11 20 -3 30 -15 10z" />
    <path d="M1767 1576 c-4 -10 0 -14 13 -13 14 1 16 4 8 14 -13 16 -15 16 -21
-1z" />
    <path d="M1504 1569 c-3 -6 -1 -16 5 -22 8 -8 11 -5 11 11 0 24 -5 28 -16 11z" />
    <path d="M1100 1535 c0 -14 47 -74 53 -68 12 11 8 23 -9 23 -8 0 -12 5 -9 10
3 6 1 10 -4 10 -6 0 -10 5 -8 11 1 6 -4 14 -10 16 -7 3 -13 2 -13 -2z" />
    <path d="M1214 1522 c-9 -5 -8 -10 2 -19 9 -9 15 -10 20 -2 8 14 -8 30 -22 21z" />
    <path d="M1250 1458 c0 -18 18 -34 28 -24 3 4 -2 14 -11 23 -16 16 -17 16 -17
1z" />
    <path d="M1286 1411 c-4 -6 -2 -11 4 -11 6 0 8 -5 5 -10 -3 -6 1 -13 9 -16 9
-3 13 -10 11 -15 -3 -4 3 -17 14 -28 11 -11 17 -22 14 -25 -4 -3 -1 -6 5 -6
18 0 15 10 -22 69 -20 32 -36 49 -40 42z" />
    <path d="M1200 1373 c1 -16 39 -57 46 -50 4 4 2 7 -5 7 -7 0 -9 5 -6 10 3 6
-1 13 -9 16 -9 3 -13 10 -10 15 3 5 0 9 -5 9 -6 0 -11 -3 -11 -7z" />
    <path d="M1250 1295 c0 -16 39 -65 44 -56 4 6 3 11 -3 11 -6 0 -8 7 -5 15 4
10 0 15 -11 15 -9 0 -13 5 -10 10 3 6 1 10 -4 10 -6 0 -11 -2 -11 -5z" />
    <path d="M1366 1281 c-4 -6 -2 -11 4 -11 6 0 8 -5 5 -10 -3 -6 1 -13 9 -16 9
-3 13 -10 10 -15 -3 -5 0 -9 5 -9 16 0 13 11 -8 43 -11 18 -21 25 -25 18z" />
    <path d="M1440 1275 c0 -8 5 -15 10 -15 6 0 10 7 10 15 0 8 -4 15 -10 15 -5 0
-10 -7 -10 -15z" />
    <path d="M1619 1173 c-1 -5 -1 -11 0 -15 0 -5 -4 -8 -10 -8 -5 0 -8 -4 -5 -9
3 -5 -1 -12 -10 -15 -8 -3 -13 -10 -10 -15 4 -5 1 -12 -4 -14 -7 -4 -6 -5 1
-3 6 1 11 6 11 11 1 6 7 15 15 20 12 9 27 55 17 55 -2 0 -5 -3 -5 -7z" />
    <path d="M1432 999 c2 -6 8 -10 13 -10 5 0 11 4 13 10 2 6 -4 11 -13 11 -9 0
-15 -5 -13 -11z" />
    <path d="M1478 963 c-10 -2 -18 -8 -18 -12 0 -12 43 -6 48 7 4 12 0 13 -30 5z" />
  </g>
  <g transform="translate(0.000000,301.000000) scale(0.100000,-0.100000)" fill="#83f9f3" stroke="none">
    <path d="M1515 1961 c-6 -11 9 -23 19 -14 9 9 7 23 -3 23 -6 0 -12 -4 -16 -9z" />
    <path d="M971 1824 c13 -17 26 -30 28 -27 3 2 -8 16 -24 31 -28 27 -28 27 -4
-4z" />
    <path d="M1079 1713 c-2 -14 -6 -28 -9 -33 -7 -13 -5 -58 3 -53 4 3 6 12 3 20
-4 9 -2 21 2 27 5 6 9 19 9 29 0 17 -6 24 -8 10z" />
  </g>
  <g transform="translate(0.000000,301.000000) scale(0.100000,-0.100000)" fill="#e5e7e7" stroke="none">
    <path d="M1060 1595 c0 -15 18 -40 24 -34 3 3 -1 14 -9 25 -8 10 -14 15 -15 9z" />
    <path d="M1253 1593 c37 -2 96 -2 130 0 34 2 4 3 -68 3 -71 0 -99 -1 -62 -3z" />
    <path d="M1790 1431 c-6 -12 -7 -21 -1 -21 10 0 24 30 17 37 -2 3 -9 -5 -16
-16z" />
    <path d="M1510 1340 c0 -33 4 -60 10 -60 6 0 10 27 10 60 0 33 -4 60 -10 60
-6 0 -10 -27 -10 -60z" />
    <path d="M1430 1265 c0 -19 5 -35 10 -35 6 0 10 16 10 35 0 19 -4 35 -10 35
-5 0 -10 -16 -10 -35z" />
    <path d="M1660 1221 c-6 -12 -7 -21 -1 -21 10 0 24 30 17 37 -2 3 -9 -5 -16
-16z" />
    <path d="M1320 1175 c0 -15 18 -40 24 -34 3 3 -1 14 -9 25 -8 10 -14 15 -15 9z" />
    <path d="M1440 975 c0 -18 19 -40 26 -32 4 4 0 15 -9 24 -9 10 -17 13 -17 8z" />
    <path d="M1492 948 c-15 -15 -15 -28 -1 -28 5 0 8 4 5 9 -4 5 0 11 6 14 7 2
10 7 7 10 -3 4 -11 1 -17 -5z" />
  </g>
  <g transform="translate(0.000000,301.000000) scale(0.100000,-0.100000)" fill="#82aaa8" stroke="none">
    <path d="M2152 2025 c-6 -14 -10 -25 -8 -25 2 0 11 11 20 25 9 14 13 25 8 25
-5 0 -14 -11 -20 -25z" />
    <path d="M843 1945 c7 -14 16 -25 20 -25 9 0 -9 36 -22 44 -5 4 -4 -5 2 -19z" />
    <path d="M1853 1724 c-3 -10 -11 -22 -17 -26 -8 -5 -7 -8 1 -8 14 0 38 39 29
47 -3 3 -9 -3 -13 -13z" />
    <path d="M1144 1643 c16 -32 36 -52 36 -35 0 5 -12 22 -26 38 -26 29 -26 29
-10 -3z" />
    <path d="M1784 1610 c-10 -22 -21 -40 -25 -40 -4 0 -12 -13 -18 -30 -6 -18 -6
-30 0 -30 5 0 9 7 9 15 0 8 5 15 12 15 6 0 9 3 5 6 -3 3 8 28 24 55 15 27 24
49 19 49 -4 0 -16 -18 -26 -40z" />
    <path d="M1872 1583 c1 -5 -3 -18 -10 -30 -8 -14 -9 -23 -3 -23 11 0 31 32 31
49 0 6 -4 11 -10 11 -5 0 -9 -3 -8 -7z" />
    <path d="M1124 1500 c3 -8 9 -23 12 -32 4 -10 14 -18 23 -18 10 0 12 3 5 8 -5
4 -18 18 -28 32 -10 14 -15 18 -12 10z" />
    <path d="M1190 1384 c0 -6 12 -24 26 -40 15 -17 22 -21 16 -9 -16 32 -41 61
-42 49z" />
    <path d="M1320 1367 c0 -13 63 -108 68 -103 3 3 -2 14 -11 24 -10 10 -17 23
-17 29 0 5 -9 20 -20 33 -11 13 -20 20 -20 17z" />
    <path d="M1506 1264 c-8 -21 -8 -24 3 -24 5 0 11 9 14 20 6 24 -8 27 -17 4z" />
    <path d="M1673 1243 c-9 -16 -22 -34 -27 -42 -8 -11 -8 -13 0 -8 13 7 56 77
49 77 -3 0 -12 -12 -22 -27z" />
    <path d="M1547 1227 c-15 -17 -25 -26 -22 -19 3 6 1 12 -4 12 -6 0 -11 -9 -11
-20 0 -28 15 -25 38 8 42 60 41 69 -1 19z" />
    <path d="M1370 1090 c0 -9 28 -40 37 -40 3 0 0 6 -6 13 -6 8 -8 16 -5 19 2 3
-2 8 -11 11 -8 4 -15 2 -15 -3z" />
    <path d="M1427 1000 c3 -10 12 -25 21 -32 13 -11 12 -8 -2 20 -19 36 -27 41
-19 12z" />
  </g>
  <g transform="translate(0.000000,301.000000) scale(0.100000,-0.100000)" fill="#d1d6d6" stroke="none">
    <path d="M786 2042 c-3 -6 3 -21 14 -33 23 -28 25 -22 6 16 -8 14 -17 22 -20
17z" />
    <path d="M1548 1948 c9 -9 15 -9 24 0 9 9 7 12 -12 12 -19 0 -21 -3 -12 -12z" />
    <path d="M1935 1950 c3 -5 15 -10 25 -10 10 0 22 5 25 10 4 6 -7 10 -25 10
-18 0 -29 -4 -25 -10z" />
    <path d="M1510 1485 c0 -68 4 -104 10 -100 6 3 10 48 10 100 0 52 -4 97 -10
100 -6 4 -10 -32 -10 -100z" />
    <path d="M1870 1555 c0 -8 -4 -15 -10 -15 -5 0 -10 -5 -10 -11 0 -14 18 -2 30
22 7 13 7 19 0 19 -5 0 -10 -7 -10 -15z" />
    <path d="M1235 1499 c9 -17 19 -29 21 -26 7 7 -18 57 -28 57 -5 0 -1 -14 7
-31z" />
    <path d="M1432 1413 c-1 -68 3 -125 8 -128 12 -7 12 127 1 200 -6 39 -8 24 -9
-72z" />
    <path d="M1706 1294 c-10 -14 -16 -28 -13 -30 2 -3 12 7 21 22 10 14 16 28 13
30 -2 3 -12 -7 -21 -22z" />
    <path d="M1385 1260 c9 -16 20 -30 26 -30 6 0 1 14 -11 30 -12 17 -23 30 -26
30 -2 0 2 -13 11 -30z" />
    <path d="M1433 1233 c-3 -10 -7 -21 -9 -24 -2 -3 3 -6 11 -6 9 0 15 10 15 24
0 27 -8 30 -17 6z" />
    <path d="M1525 1212 c3 -3 0 -11 -6 -19 -8 -9 -8 -13 -1 -13 6 0 16 8 21 18 8
14 6 19 -5 19 -7 0 -12 -3 -9 -5z" />
  </g>
  <g transform="translate(0.000000,301.000000) scale(0.100000,-0.100000)" fill="#92f3eb" stroke="none">
    <path d="M957 1964 c-11 -11 3 -24 18 -18 8 4 12 10 9 15 -6 11 -18 12 -27 3z" />
    <path d="M1395 1960 c-4 -6 5 -10 20 -10 15 0 24 4 20 10 -3 6 -12 10 -20 10
-8 0 -17 -4 -20 -10z" />
    <path d="M1595 1960 c-3 -5 3 -10 15 -10 12 0 18 5 15 10 -3 6 -10 10 -15 10
-5 0 -12 -4 -15 -10z" />
    <path d="M1431 1903 c1 -15 5 -41 9 -58 7 -26 8 -23 9 22 0 28 -3 55 -9 58 -6
4 -10 -5 -9 -22z" />
    <path d="M1226 1502 c-3 -6 -1 -14 5 -17 15 -10 25 3 12 16 -7 7 -13 7 -17 1z" />
    <path d="M1507 1473 c-11 -10 -8 -191 3 -198 6 -4 10 32 10 99 0 106 -1 112
-13 99z" />
    <path d="M1440 1300 c0 -45 4 -79 9 -76 12 8 13 143 1 151 -6 4 -10 -24 -10
-75z" />
    <path d="M1406 1212 c-3 -6 -1 -14 5 -17 15 -10 25 3 12 16 -7 7 -13 7 -17 1z" />
    <path d="M1510 1175 c-14 -16 -3 -20 19 -6 8 5 9 11 3 15 -5 3 -15 -1 -22 -9z" />
  </g>
  <g transform="translate(0.000000,301.000000) scale(0.100000,-0.100000)" fill="#99b3b3" stroke="none">
    <path d="M788 2036 c3 -12 14 -29 24 -40 10 -11 18 -24 18 -30 0 -5 2 -7 6 -4
3 3 -4 21 -15 39 -25 41 -26 46 -3 52 9 3 5 4 -9 4 -21 -1 -25 -5 -21 -21z" />
    <path d="M1418 1947 c6 -6 12 -28 15 -47 3 -30 4 -28 5 13 2 37 -1 47 -14 47
-12 0 -14 -3 -6 -13z" />
    <path d="M1520 1944 c0 -14 3 -14 15 -4 8 7 15 14 15 16 0 2 -7 4 -15 4 -8 0
-15 -7 -15 -16z" />
    <path d="M1523 1880 c0 -25 2 -35 4 -22 2 12 2 32 0 45 -2 12 -4 2 -4 -23z" />
    <path d="M1877 1760 c-19 -22 -22 -35 -7 -25 10 6 34 45 28 45 -2 0 -11 -9
-21 -20z" />
    <path d="M1296 1398 c12 -22 19 -28 22 -18 3 7 0 16 -6 18 -7 2 -12 10 -12 18
0 8 -5 14 -10 14 -6 0 -3 -15 6 -32z" />
    <path d="M1396 1238 c12 -22 19 -28 22 -18 3 7 0 16 -6 18 -7 2 -12 10 -12 18
0 8 -5 14 -10 14 -6 0 -3 -15 6 -32z" />
    <path d="M1280 1241 c0 -7 7 -19 15 -27 19 -20 19 -5 0 20 -9 11 -15 14 -15 7z" />
    <path d="M1522 1000 c-14 -23 -15 -30 -3 -30 8 0 24 41 18 47 -2 1 -8 -7 -15
-17z" />
    <path d="M1450 963 c0 -5 9 -18 20 -28 11 -10 20 -15 20 -11 0 4 -9 16 -20 28
-11 12 -20 17 -20 11z" />
  </g>
  <g transform="translate(0.000000,301.000000) scale(0.100000,-0.100000)" fill="#3e746f" stroke="none">
    <path d="M960 1953 c0 -5 108 -8 240 -8 132 0 240 3 240 8 0 4 -108 7 -240 7
-132 0 -240 -3 -240 -7z" />
    <path d="M1520 1953 c0 -5 108 -8 240 -8 132 0 240 3 240 8 0 4 -108 7 -240 7
-132 0 -240 -3 -240 -7z" />
    <path d="M1420 1196 c0 -2 7 -9 15 -16 12 -10 15 -10 15 4 0 9 -7 16 -15 16
-8 0 -15 -2 -15 -4z" />
  </g>
  <g transform="translate(0.000000,301.000000) scale(0.100000,-0.100000)" fill="#6ea8a5" stroke="none">
    <path d="M1230 1533 c0 -5 47 -8 105 -8 58 0 105 3 105 8 0 4 -47 7 -105 7
-58 0 -105 -3 -105 -7z" />
    <path d="M1512 1510 c0 -19 2 -27 5 -17 2 9 2 25 0 35 -3 9 -5 1 -5 -18z" />
    <path d="M1460 953 c12 -25 25 -29 36 -11 5 7 3 8 -5 4 -7 -5 -19 0 -27 10
-14 18 -14 18 -4 -3z" />
  </g>
  <g transform="translate(0.000000,301.000000) scale(0.100000,-0.100000)" fill="#76b8b4" stroke="none">
    <path d="M1513 1610 c0 -47 2 -66 4 -42 2 23 2 61 0 85 -2 23 -4 4 -4 -43z" />
    <path d="M1443 1405 c0 -27 2 -38 4 -22 2 15 2 37 0 50 -2 12 -4 0 -4 -28z" />
  </g>
  <g transform="translate(0.000000,301.000000) scale(0.100000,-0.100000)" fill="#649c96" stroke="none">
    <path d="M1513 1420 c0 -41 2 -58 4 -37 2 20 2 54 0 75 -2 20 -4 3 -4 -38z" />
    <path d="M1440 1284 c0 -54 -4 -83 -10 -79 -5 3 -10 1 -10 -4 0 -6 7 -11 15
-11 12 0 15 17 15 90 0 50 -2 90 -5 90 -3 0 -5 -39 -5 -86z" />
    <path d="M1510 1302 c0 -18 5 -32 10 -32 6 0 8 11 4 28 -10 39 -14 40 -14 4z" />
  </g>
  <g transform="translate(0.000000,301.000000) scale(0.100000,-0.100000)" fill="#f1f2f2" stroke="none">
    <path d="M1510 1231 c0 -12 5 -21 10 -21 6 0 10 6 10 14 0 8 -4 18 -10 21 -5
3 -10 -3 -10 -14z" />
  </g>
  <g transform="translate(0.000000,301.000000) scale(0.100000,-0.100000)" fill="#7c9c9c" stroke="none" />
  <g transform="translate(0.000000,301.000000) scale(0.100000,-0.100000)" fill="#5b8c89" stroke="none" />
</svg>